ISO-10303-21;
HEADER;
FILE_DESCRIPTION(('FreeCAD Model'),'2;1');
FILE_NAME('Open CASCADE Shape Model','2026-02-02T00:07:00',('Author'),(
    ''),'Open CASCADE STEP processor 7.9','FreeCAD','Unknown');
FILE_SCHEMA(('AUTOMOTIVE_DESIGN { 1 0 10303 214 1 1 1 1 }'));
ENDSEC;
DATA;
#1 = APPLICATION_PROTOCOL_DEFINITION('international standard',
  'automotive_design',2000,#2);
#2 = APPLICATION_CONTEXT(
  'core data for automotive mechanical design processes');
#3 = SHAPE_DEFINITION_REPRESENTATION(#4,#10);
#4 = PRODUCT_DEFINITION_SHAPE('','',#5);
#5 = PRODUCT_DEFINITION('design','',#6,#9);
#6 = PRODUCT_DEFINITION_FORMATION('','',#7);
#7 = PRODUCT('Skirt_DefeatConvrt_copy','Skirt_DefeatConvrt_copy','',(#8)
  );
#8 = PRODUCT_CONTEXT('',#2,'mechanical');
#9 = PRODUCT_DEFINITION_CONTEXT('part definition',#2,'design');
#10 = SHAPE_REPRESENTATION('',(#11,#15,#19,#23,#27),#31);
#11 = AXIS2_PLACEMENT_3D('',#12,#13,#14);
#12 = CARTESIAN_POINT('',(0.,0.,0.));
#13 = DIRECTION('',(0.,0.,1.));
#14 = DIRECTION('',(1.,0.,-0.));
#15 = AXIS2_PLACEMENT_3D('',#16,#17,#18);
#16 = CARTESIAN_POINT('',(0.,0.,0.));
#17 = DIRECTION('',(0.,0.,1.));
#18 = DIRECTION('',(1.,0.,0.));
#19 = AXIS2_PLACEMENT_3D('',#20,#21,#22);
#20 = CARTESIAN_POINT('',(0.,0.,0.));
#21 = DIRECTION('',(0.,0.,1.));
#22 = DIRECTION('',(1.,0.,0.));
#23 = AXIS2_PLACEMENT_3D('',#24,#25,#26);
#24 = CARTESIAN_POINT('',(0.,0.,0.));
#25 = DIRECTION('',(0.,0.,1.));
#26 = DIRECTION('',(1.,0.,0.));
#27 = AXIS2_PLACEMENT_3D('',#28,#29,#30);
#28 = CARTESIAN_POINT('',(0.,0.,0.));
#29 = DIRECTION('',(0.,0.,1.));
#30 = DIRECTION('',(1.,0.,0.));
#31 = ( GEOMETRIC_REPRESENTATION_CONTEXT(3) 
GLOBAL_UNCERTAINTY_ASSIGNED_CONTEXT((#35)) GLOBAL_UNIT_ASSIGNED_CONTEXT(
(#32,#33,#34)) REPRESENTATION_CONTEXT('Context #1',
  '3D Context with UNIT and UNCERTAINTY') );
#32 = ( LENGTH_UNIT() NAMED_UNIT(*) SI_UNIT($,.METRE.) );
#33 = ( NAMED_UNIT(*) PLANE_ANGLE_UNIT() SI_UNIT($,.RADIAN.) );
#34 = ( NAMED_UNIT(*) SI_UNIT($,.STERADIAN.) SOLID_ANGLE_UNIT() );
#35 = UNCERTAINTY_MEASURE_WITH_UNIT(LENGTH_MEASURE(1.E-10),#32,
  'distance_accuracy_value','confusion accuracy');
#36 = PRODUCT_RELATED_PRODUCT_CATEGORY('part',$,(#7));
#37 = SHAPE_DEFINITION_REPRESENTATION(#38,#44);
#38 = PRODUCT_DEFINITION_SHAPE('','',#39);
#39 = PRODUCT_DEFINITION('design','',#40,#43);
#40 = PRODUCT_DEFINITION_FORMATION('','',#41);
#41 = PRODUCT('stainless_cylinder_surface','stainless_cylinder_surface',
  '',(#42));
#42 = PRODUCT_CONTEXT('',#2,'mechanical');
#43 = PRODUCT_DEFINITION_CONTEXT('part definition',#2,'design');
#44 = MANIFOLD_SURFACE_SHAPE_REPRESENTATION('',(#11,#45),#99);
#45 = SHELL_BASED_SURFACE_MODEL('',(#46));
#46 = OPEN_SHELL('',(#47));
#47 = ADVANCED_FACE('',(#48),#82,.T.);
#48 = FACE_BOUND('',#49,.T.);
#49 = EDGE_LOOP('',(#50,#59,#70,#71));
#50 = ORIENTED_EDGE('',*,*,#51,.F.);
#51 = EDGE_CURVE('',#52,#54,#56,.T.);
#52 = VERTEX_POINT('',#53);
#53 = CARTESIAN_POINT('',(-1.6125,7.3675,-1.784E-15));
#54 = VERTEX_POINT('',#55);
#55 = CARTESIAN_POINT('',(-1.6125,9.3675,-2.228E-15));
#56 = B_SPLINE_CURVE_WITH_KNOTS('',1,(#57,#58),.UNSPECIFIED.,.F.,.F.,(2,
    2),(0.,1.),.PIECEWISE_BEZIER_KNOTS.);
#57 = CARTESIAN_POINT('',(-1.6125,7.3675,-1.78376E-15));
#58 = CARTESIAN_POINT('',(-1.6125,9.3675,-2.22785E-15));
#59 = ORIENTED_EDGE('',*,*,#60,.T.);
#60 = EDGE_CURVE('',#52,#52,#61,.T.);
#61 = B_SPLINE_CURVE_WITH_KNOTS('',7,(#62,#63,#64,#65,#66,#67,#68,#69),
  .UNSPECIFIED.,.T.,.F.,(8,8),(0.,1.),.PIECEWISE_BEZIER_KNOTS.);
#62 = CARTESIAN_POINT('',(-1.6125,7.3675,-1.78376E-15));
#63 = CARTESIAN_POINT('',(-1.6125,7.3675,1.634839572775));
#64 = CARTESIAN_POINT('',(0.320956842227,7.3675,3.018446808153));
#65 = CARTESIAN_POINT('',(3.124588008583,7.3675,1.704933332984));
#66 = CARTESIAN_POINT('',(3.124588008583,7.3675,-1.704933332984));
#67 = CARTESIAN_POINT('',(0.320956842227,7.3675,-3.018446808153));
#68 = CARTESIAN_POINT('',(-1.6125,7.3675,-1.634839572776));
#69 = CARTESIAN_POINT('',(-1.6125,7.3675,-2.17871E-15));
#70 = ORIENTED_EDGE('',*,*,#51,.T.);
#71 = ORIENTED_EDGE('',*,*,#72,.F.);
#72 = EDGE_CURVE('',#54,#54,#73,.T.);
#73 = B_SPLINE_CURVE_WITH_KNOTS('',7,(#74,#75,#76,#77,#78,#79,#80,#81),
  .UNSPECIFIED.,.T.,.F.,(8,8),(0.,1.),.PIECEWISE_BEZIER_KNOTS.);
#74 = CARTESIAN_POINT('',(-1.6125,9.3675,-2.22785E-15));
#75 = CARTESIAN_POINT('',(-1.6125,9.3675,1.634839572775));
#76 = CARTESIAN_POINT('',(0.320956842227,9.3675,3.018446808153));
#77 = CARTESIAN_POINT('',(3.124588008583,9.3675,1.704933332984));
#78 = CARTESIAN_POINT('',(3.124588008583,9.3675,-1.704933332984));
#79 = CARTESIAN_POINT('',(0.320956842227,9.3675,-3.018446808153));
#80 = CARTESIAN_POINT('',(-1.6125,9.3675,-1.634839572776));
#81 = CARTESIAN_POINT('',(-1.6125,9.3675,-2.6228E-15));
#82 = B_SPLINE_SURFACE_WITH_KNOTS('',7,1,(
    (#83,#84)
    ,(#85,#86)
    ,(#87,#88)
    ,(#89,#90)
    ,(#91,#92)
    ,(#93,#94)
    ,(#95,#96)
    ,(#97,#98)),.UNSPECIFIED.,.T.,.F.,.F.,(8,8),(2,2),(0.,1.),(0.,1.),
  .PIECEWISE_BEZIER_KNOTS.);
#83 = CARTESIAN_POINT('',(-1.6125,7.3675,-1.78376E-15));
#84 = CARTESIAN_POINT('',(-1.6125,9.3675,-2.22785E-15));
#85 = CARTESIAN_POINT('',(-1.6125,7.3675,1.634839572775));
#86 = CARTESIAN_POINT('',(-1.6125,9.3675,1.634839572775));
#87 = CARTESIAN_POINT('',(0.320956842227,7.3675,3.018446808153));
#88 = CARTESIAN_POINT('',(0.320956842227,9.3675,3.018446808153));
#89 = CARTESIAN_POINT('',(3.124588008583,7.3675,1.704933332984));
#90 = CARTESIAN_POINT('',(3.124588008583,9.3675,1.704933332984));
#91 = CARTESIAN_POINT('',(3.124588008583,7.3675,-1.704933332984));
#92 = CARTESIAN_POINT('',(3.124588008583,9.3675,-1.704933332984));
#93 = CARTESIAN_POINT('',(0.320956842227,7.3675,-3.018446808153));
#94 = CARTESIAN_POINT('',(0.320956842227,9.3675,-3.018446808153));
#95 = CARTESIAN_POINT('',(-1.6125,7.3675,-1.634839572776));
#96 = CARTESIAN_POINT('',(-1.6125,9.3675,-1.634839572776));
#97 = CARTESIAN_POINT('',(-1.6125,7.3675,-2.17871E-15));
#98 = CARTESIAN_POINT('',(-1.6125,9.3675,-2.6228E-15));
#99 = ( GEOMETRIC_REPRESENTATION_CONTEXT(3) 
GLOBAL_UNCERTAINTY_ASSIGNED_CONTEXT((#103)) GLOBAL_UNIT_ASSIGNED_CONTEXT
((#100,#101,#102)) REPRESENTATION_CONTEXT('Context #1',
  '3D Context with UNIT and UNCERTAINTY') );
#100 = ( LENGTH_UNIT() NAMED_UNIT(*) SI_UNIT($,.METRE.) );
#101 = ( NAMED_UNIT(*) PLANE_ANGLE_UNIT() SI_UNIT($,.RADIAN.) );
#102 = ( NAMED_UNIT(*) SI_UNIT($,.STERADIAN.) SOLID_ANGLE_UNIT() );
#103 = UNCERTAINTY_MEASURE_WITH_UNIT(LENGTH_MEASURE(1.E-10),#100,
  'distance_accuracy_value','confusion accuracy');
#104 = CONTEXT_DEPENDENT_SHAPE_REPRESENTATION(#105,#107);
#105 = ( REPRESENTATION_RELATIONSHIP('','',#44,#10) 
REPRESENTATION_RELATIONSHIP_WITH_TRANSFORMATION(#106) 
SHAPE_REPRESENTATION_RELATIONSHIP() );
#106 = ITEM_DEFINED_TRANSFORMATION('','',#11,#15);
#107 = PRODUCT_DEFINITION_SHAPE('Placement','Placement of an item',#108
  );
#108 = NEXT_ASSEMBLY_USAGE_OCCURRENCE('1','stainless_cylinder_surface',
  '',#5,#39,$);
#109 = PRODUCT_RELATED_PRODUCT_CATEGORY('part',$,(#41));
#110 = SHAPE_DEFINITION_REPRESENTATION(#111,#117);
#111 = PRODUCT_DEFINITION_SHAPE('','',#112);
#112 = PRODUCT_DEFINITION('design','',#113,#116);
#113 = PRODUCT_DEFINITION_FORMATION('','',#114);
#114 = PRODUCT('carbon_cylinder_surface','carbon_cylinder_surface','',(
    #115));
#115 = PRODUCT_CONTEXT('',#2,'mechanical');
#116 = PRODUCT_DEFINITION_CONTEXT('part definition',#2,'design');
#117 = MANIFOLD_SURFACE_SHAPE_REPRESENTATION('',(#11,#118),#172);
#118 = SHELL_BASED_SURFACE_MODEL('',(#119));
#119 = OPEN_SHELL('',(#120));
#120 = ADVANCED_FACE('',(#121),#155,.T.);
#121 = FACE_BOUND('',#122,.T.);
#122 = EDGE_LOOP('',(#123,#132,#143,#144));
#123 = ORIENTED_EDGE('',*,*,#124,.F.);
#124 = EDGE_CURVE('',#125,#127,#129,.T.);
#125 = VERTEX_POINT('',#126);
#126 = CARTESIAN_POINT('',(-1.6125,-1.2825,9.E-18));
#127 = VERTEX_POINT('',#128);
#128 = CARTESIAN_POINT('',(-1.6125,7.3675,-1.784E-15));
#129 = B_SPLINE_CURVE_WITH_KNOTS('',1,(#130,#131),.UNSPECIFIED.,.F.,.F.,
  (2,2),(0.,1.),.PIECEWISE_BEZIER_KNOTS.);
#130 = CARTESIAN_POINT('',(-1.6125,-1.2825,8.76E-18));
#131 = CARTESIAN_POINT('',(-1.6125,7.3675,-1.78376E-15));
#132 = ORIENTED_EDGE('',*,*,#133,.T.);
#133 = EDGE_CURVE('',#125,#125,#134,.T.);
#134 = B_SPLINE_CURVE_WITH_KNOTS('',7,(#135,#136,#137,#138,#139,#140,
    #141,#142),.UNSPECIFIED.,.T.,.F.,(8,8),(0.,1.),
  .PIECEWISE_BEZIER_KNOTS.);
#135 = CARTESIAN_POINT('',(-1.6125,-1.2825,8.76E-18));
#136 = CARTESIAN_POINT('',(-1.6125,-1.2825,1.634839572776));
#137 = CARTESIAN_POINT('',(0.320956842227,-1.2825,3.018446808153));
#138 = CARTESIAN_POINT('',(3.124588008583,-1.2825,1.704933332984));
#139 = CARTESIAN_POINT('',(3.124588008583,-1.2825,-1.704933332984));
#140 = CARTESIAN_POINT('',(0.320956842227,-1.2825,-3.018446808153));
#141 = CARTESIAN_POINT('',(-1.6125,-1.2825,-1.634839572776));
#142 = CARTESIAN_POINT('',(-1.6125,-1.2825,-3.8619E-16));
#143 = ORIENTED_EDGE('',*,*,#124,.T.);
#144 = ORIENTED_EDGE('',*,*,#145,.F.);
#145 = EDGE_CURVE('',#127,#127,#146,.T.);
#146 = B_SPLINE_CURVE_WITH_KNOTS('',7,(#147,#148,#149,#150,#151,#152,
    #153,#154),.UNSPECIFIED.,.T.,.F.,(8,8),(0.,1.),
  .PIECEWISE_BEZIER_KNOTS.);
#147 = CARTESIAN_POINT('',(-1.6125,7.3675,-1.78376E-15));
#148 = CARTESIAN_POINT('',(-1.6125,7.3675,1.634839572775));
#149 = CARTESIAN_POINT('',(0.320956842227,7.3675,3.018446808153));
#150 = CARTESIAN_POINT('',(3.124588008583,7.3675,1.704933332984));
#151 = CARTESIAN_POINT('',(3.124588008583,7.3675,-1.704933332984));
#152 = CARTESIAN_POINT('',(0.320956842227,7.3675,-3.018446808153));
#153 = CARTESIAN_POINT('',(-1.6125,7.3675,-1.634839572776));
#154 = CARTESIAN_POINT('',(-1.6125,7.3675,-2.17871E-15));
#155 = B_SPLINE_SURFACE_WITH_KNOTS('',7,1,(
    (#156,#157)
    ,(#158,#159)
    ,(#160,#161)
    ,(#162,#163)
    ,(#164,#165)
    ,(#166,#167)
    ,(#168,#169)
    ,(#170,#171)),.UNSPECIFIED.,.T.,.F.,.F.,(8,8),(2,2),(0.,1.),(0.,1.),
  .PIECEWISE_BEZIER_KNOTS.);
#156 = CARTESIAN_POINT('',(-1.6125,-1.2825,8.76E-18));
#157 = CARTESIAN_POINT('',(-1.6125,7.3675,-1.78376E-15));
#158 = CARTESIAN_POINT('',(-1.6125,-1.2825,1.634839572776));
#159 = CARTESIAN_POINT('',(-1.6125,7.3675,1.634839572775));
#160 = CARTESIAN_POINT('',(0.320956842227,-1.2825,3.018446808153));
#161 = CARTESIAN_POINT('',(0.320956842227,7.3675,3.018446808153));
#162 = CARTESIAN_POINT('',(3.124588008583,-1.2825,1.704933332984));
#163 = CARTESIAN_POINT('',(3.124588008583,7.3675,1.704933332984));
#164 = CARTESIAN_POINT('',(3.124588008583,-1.2825,-1.704933332984));
#165 = CARTESIAN_POINT('',(3.124588008583,7.3675,-1.704933332984));
#166 = CARTESIAN_POINT('',(0.320956842227,-1.2825,-3.018446808153));
#167 = CARTESIAN_POINT('',(0.320956842227,7.3675,-3.018446808153));
#168 = CARTESIAN_POINT('',(-1.6125,-1.2825,-1.634839572776));
#169 = CARTESIAN_POINT('',(-1.6125,7.3675,-1.634839572776));
#170 = CARTESIAN_POINT('',(-1.6125,-1.2825,-3.8619E-16));
#171 = CARTESIAN_POINT('',(-1.6125,7.3675,-2.17871E-15));
#172 = ( GEOMETRIC_REPRESENTATION_CONTEXT(3) 
GLOBAL_UNCERTAINTY_ASSIGNED_CONTEXT((#176)) GLOBAL_UNIT_ASSIGNED_CONTEXT
((#173,#174,#175)) REPRESENTATION_CONTEXT('Context #1',
  '3D Context with UNIT and UNCERTAINTY') );
#173 = ( LENGTH_UNIT() NAMED_UNIT(*) SI_UNIT($,.METRE.) );
#174 = ( NAMED_UNIT(*) PLANE_ANGLE_UNIT() SI_UNIT($,.RADIAN.) );
#175 = ( NAMED_UNIT(*) SI_UNIT($,.STERADIAN.) SOLID_ANGLE_UNIT() );
#176 = UNCERTAINTY_MEASURE_WITH_UNIT(LENGTH_MEASURE(1.E-10),#173,
  'distance_accuracy_value','confusion accuracy');
#177 = CONTEXT_DEPENDENT_SHAPE_REPRESENTATION(#178,#180);
#178 = ( REPRESENTATION_RELATIONSHIP('','',#117,#10) 
REPRESENTATION_RELATIONSHIP_WITH_TRANSFORMATION(#179) 
SHAPE_REPRESENTATION_RELATIONSHIP() );
#179 = ITEM_DEFINED_TRANSFORMATION('','',#11,#19);
#180 = PRODUCT_DEFINITION_SHAPE('Placement','Placement of an item',#181
  );
#181 = NEXT_ASSEMBLY_USAGE_OCCURRENCE('2','carbon_cylinder_surface','',
  #5,#112,$);
#182 = PRODUCT_RELATED_PRODUCT_CATEGORY('part',$,(#114));
#183 = SHAPE_DEFINITION_REPRESENTATION(#184,#190);
#184 = PRODUCT_DEFINITION_SHAPE('','',#185);
#185 = PRODUCT_DEFINITION('design','',#186,#189);
#186 = PRODUCT_DEFINITION_FORMATION('','',#187);
#187 = PRODUCT('base_plate_surface','base_plate_surface','',(#188));
#188 = PRODUCT_CONTEXT('',#2,'mechanical');
#189 = PRODUCT_DEFINITION_CONTEXT('part definition',#2,'design');
#190 = MANIFOLD_SURFACE_SHAPE_REPRESENTATION('',(#11,#191),#245);
#191 = SHELL_BASED_SURFACE_MODEL('',(#192));
#192 = OPEN_SHELL('',(#193));
#193 = ADVANCED_FACE('',(#194),#228,.T.);
#194 = FACE_BOUND('',#195,.T.);
#195 = EDGE_LOOP('',(#196,#205,#216,#217));
#196 = ORIENTED_EDGE('',*,*,#197,.F.);
#197 = EDGE_CURVE('',#198,#200,#202,.T.);
#198 = VERTEX_POINT('',#199);
#199 = CARTESIAN_POINT('',(-1.4,-1.2825,9.E-18));
#200 = VERTEX_POINT('',#201);
#201 = CARTESIAN_POINT('',(-1.78,-1.2825,9.E-18));
#202 = B_SPLINE_CURVE_WITH_KNOTS('',1,(#203,#204),.UNSPECIFIED.,.F.,.F.,
  (2,2),(0.,1.),.PIECEWISE_BEZIER_KNOTS.);
#203 = CARTESIAN_POINT('',(-1.4,-1.2825,8.76E-18));
#204 = CARTESIAN_POINT('',(-1.78,-1.2825,8.76E-18));
#205 = ORIENTED_EDGE('',*,*,#206,.T.);
#206 = EDGE_CURVE('',#198,#198,#207,.T.);
#207 = B_SPLINE_CURVE_WITH_KNOTS('',7,(#208,#209,#210,#211,#212,#213,
    #214,#215),.UNSPECIFIED.,.T.,.F.,(8,8),(0.,1.),
  .PIECEWISE_BEZIER_KNOTS.);
#208 = CARTESIAN_POINT('',(-1.4,-1.2825,8.76E-18));
#209 = CARTESIAN_POINT('',(-1.4,-1.2825,1.419395598069));
#210 = CARTESIAN_POINT('',(0.278660204104,-1.2825,2.620666996226));
#211 = CARTESIAN_POINT('',(2.7128205966,-1.2825,1.480252196079));
#212 = CARTESIAN_POINT('',(2.7128205966,-1.2825,-1.480252196079));
#213 = CARTESIAN_POINT('',(0.278660204104,-1.2825,-2.620666996226));
#214 = CARTESIAN_POINT('',(-1.4,-1.2825,-1.419395598069));
#215 = CARTESIAN_POINT('',(-1.4,-1.2825,-3.3414E-16));
#216 = ORIENTED_EDGE('',*,*,#197,.T.);
#217 = ORIENTED_EDGE('',*,*,#218,.F.);
#218 = EDGE_CURVE('',#200,#200,#219,.T.);
#219 = B_SPLINE_CURVE_WITH_KNOTS('',7,(#220,#221,#222,#223,#224,#225,
    #226,#227),.UNSPECIFIED.,.T.,.F.,(8,8),(0.,1.),
  .PIECEWISE_BEZIER_KNOTS.);
#220 = CARTESIAN_POINT('',(-1.78,-1.2825,8.76E-18));
#221 = CARTESIAN_POINT('',(-1.78,-1.2825,1.804660117544));
#222 = CARTESIAN_POINT('',(0.354296545218,-1.2825,3.331990895202));
#223 = CARTESIAN_POINT('',(3.449157615677,-1.2825,1.882034935014));
#224 = CARTESIAN_POINT('',(3.449157615677,-1.2825,-1.882034935014));
#225 = CARTESIAN_POINT('',(0.354296545218,-1.2825,-3.331990895202));
#226 = CARTESIAN_POINT('',(-1.78,-1.2825,-1.804660117544));
#227 = CARTESIAN_POINT('',(-1.78,-1.2825,-4.2722E-16));
#228 = B_SPLINE_SURFACE_WITH_KNOTS('',7,1,(
    (#229,#230)
    ,(#231,#232)
    ,(#233,#234)
    ,(#235,#236)
    ,(#237,#238)
    ,(#239,#240)
    ,(#241,#242)
    ,(#243,#244)),.UNSPECIFIED.,.T.,.F.,.F.,(8,8),(2,2),(0.,1.),(0.,1.),
  .PIECEWISE_BEZIER_KNOTS.);
#229 = CARTESIAN_POINT('',(-1.4,-1.2825,8.76E-18));
#230 = CARTESIAN_POINT('',(-1.78,-1.2825,8.76E-18));
#231 = CARTESIAN_POINT('',(-1.4,-1.2825,1.419395598069));
#232 = CARTESIAN_POINT('',(-1.78,-1.2825,1.804660117544));
#233 = CARTESIAN_POINT('',(0.278660204104,-1.2825,2.620666996226));
#234 = CARTESIAN_POINT('',(0.354296545218,-1.2825,3.331990895202));
#235 = CARTESIAN_POINT('',(2.7128205966,-1.2825,1.480252196079));
#236 = CARTESIAN_POINT('',(3.449157615677,-1.2825,1.882034935014));
#237 = CARTESIAN_POINT('',(2.7128205966,-1.2825,-1.480252196079));
#238 = CARTESIAN_POINT('',(3.449157615677,-1.2825,-1.882034935014));
#239 = CARTESIAN_POINT('',(0.278660204104,-1.2825,-2.620666996226));
#240 = CARTESIAN_POINT('',(0.354296545218,-1.2825,-3.331990895202));
#241 = CARTESIAN_POINT('',(-1.4,-1.2825,-1.419395598069));
#242 = CARTESIAN_POINT('',(-1.78,-1.2825,-1.804660117544));
#243 = CARTESIAN_POINT('',(-1.4,-1.2825,-3.3414E-16));
#244 = CARTESIAN_POINT('',(-1.78,-1.2825,-4.2722E-16));
#245 = ( GEOMETRIC_REPRESENTATION_CONTEXT(3) 
GLOBAL_UNCERTAINTY_ASSIGNED_CONTEXT((#249)) GLOBAL_UNIT_ASSIGNED_CONTEXT
((#246,#247,#248)) REPRESENTATION_CONTEXT('Context #1',
  '3D Context with UNIT and UNCERTAINTY') );
#246 = ( LENGTH_UNIT() NAMED_UNIT(*) SI_UNIT($,.METRE.) );
#247 = ( NAMED_UNIT(*) PLANE_ANGLE_UNIT() SI_UNIT($,.RADIAN.) );
#248 = ( NAMED_UNIT(*) SI_UNIT($,.STERADIAN.) SOLID_ANGLE_UNIT() );
#249 = UNCERTAINTY_MEASURE_WITH_UNIT(LENGTH_MEASURE(1.E-10),#246,
  'distance_accuracy_value','confusion accuracy');
#250 = CONTEXT_DEPENDENT_SHAPE_REPRESENTATION(#251,#253);
#251 = ( REPRESENTATION_RELATIONSHIP('','',#190,#10) 
REPRESENTATION_RELATIONSHIP_WITH_TRANSFORMATION(#252) 
SHAPE_REPRESENTATION_RELATIONSHIP() );
#252 = ITEM_DEFINED_TRANSFORMATION('','',#11,#23);
#253 = PRODUCT_DEFINITION_SHAPE('Placement','Placement of an item',#254
  );
#254 = NEXT_ASSEMBLY_USAGE_OCCURRENCE('3','base_plate_surface','',#5,
  #185,$);
#255 = PRODUCT_RELATED_PRODUCT_CATEGORY('part',$,(#187));
#256 = SHAPE_DEFINITION_REPRESENTATION(#257,#263);
#257 = PRODUCT_DEFINITION_SHAPE('','',#258);
#258 = PRODUCT_DEFINITION('design','',#259,#262);
#259 = PRODUCT_DEFINITION_FORMATION('','',#260);
#260 = PRODUCT('upper_plate_surface','upper_plate_surface','',(#261));
#261 = PRODUCT_CONTEXT('',#2,'mechanical');
#262 = PRODUCT_DEFINITION_CONTEXT('part definition',#2,'design');
#263 = MANIFOLD_SURFACE_SHAPE_REPRESENTATION('',(#11,#264),#318);
#264 = SHELL_BASED_SURFACE_MODEL('',(#265));
#265 = OPEN_SHELL('',(#266));
#266 = ADVANCED_FACE('',(#267),#301,.T.);
#267 = FACE_BOUND('',#268,.T.);
#268 = EDGE_LOOP('',(#269,#278,#289,#290));
#269 = ORIENTED_EDGE('',*,*,#270,.F.);
#270 = EDGE_CURVE('',#271,#273,#275,.T.);
#271 = VERTEX_POINT('',#272);
#272 = CARTESIAN_POINT('',(-1.6275,-0.8675,-4.3E-17));
#273 = VERTEX_POINT('',#274);
#274 = CARTESIAN_POINT('',(-1.78,-0.8675,-4.3E-17));
#275 = B_SPLINE_CURVE_WITH_KNOTS('',1,(#276,#277),.UNSPECIFIED.,.F.,.F.,
  (2,2),(0.,1.),.PIECEWISE_BEZIER_KNOTS.);
#276 = CARTESIAN_POINT('',(-1.6275,-0.8675,-4.307E-17));
#277 = CARTESIAN_POINT('',(-1.78,-0.8675,-4.307E-17));
#278 = ORIENTED_EDGE('',*,*,#279,.T.);
#279 = EDGE_CURVE('',#271,#271,#280,.T.);
#280 = B_SPLINE_CURVE_WITH_KNOTS('',7,(#281,#282,#283,#284,#285,#286,
    #287,#288),.UNSPECIFIED.,.T.,.F.,(8,8),(0.,1.),
  .PIECEWISE_BEZIER_KNOTS.);
#281 = CARTESIAN_POINT('',(-1.6275,-0.8675,-4.307E-17));
#282 = CARTESIAN_POINT('',(-1.6275,-0.8675,1.650047382755));
#283 = CARTESIAN_POINT('',(0.323942487271,-0.8675,3.046525383113));
#284 = CARTESIAN_POINT('',(3.153653943547,-0.8675,1.720793177942));
#285 = CARTESIAN_POINT('',(3.153653943547,-0.8675,-1.720793177942));
#286 = CARTESIAN_POINT('',(0.323942487271,-0.8675,-3.046525383113));
#287 = CARTESIAN_POINT('',(-1.6275,-0.8675,-1.650047382755));
#288 = CARTESIAN_POINT('',(-1.6275,-0.8675,-4.4169E-16));
#289 = ORIENTED_EDGE('',*,*,#270,.T.);
#290 = ORIENTED_EDGE('',*,*,#291,.F.);
#291 = EDGE_CURVE('',#273,#273,#292,.T.);
#292 = B_SPLINE_CURVE_WITH_KNOTS('',7,(#293,#294,#295,#296,#297,#298,
    #299,#300),.UNSPECIFIED.,.T.,.F.,(8,8),(0.,1.),
  .PIECEWISE_BEZIER_KNOTS.);
#293 = CARTESIAN_POINT('',(-1.78,-0.8675,-4.307E-17));
#294 = CARTESIAN_POINT('',(-1.78,-0.8675,1.804660117544));
#295 = CARTESIAN_POINT('',(0.354296545218,-0.8675,3.331990895202));
#296 = CARTESIAN_POINT('',(3.449157615677,-0.8675,1.882034935014));
#297 = CARTESIAN_POINT('',(3.449157615677,-0.8675,-1.882034935014));
#298 = CARTESIAN_POINT('',(0.354296545218,-0.8675,-3.331990895202));
#299 = CARTESIAN_POINT('',(-1.78,-0.8675,-1.804660117544));
#300 = CARTESIAN_POINT('',(-1.78,-0.8675,-4.7904E-16));
#301 = B_SPLINE_SURFACE_WITH_KNOTS('',7,1,(
    (#302,#303)
    ,(#304,#305)
    ,(#306,#307)
    ,(#308,#309)
    ,(#310,#311)
    ,(#312,#313)
    ,(#314,#315)
    ,(#316,#317)),.UNSPECIFIED.,.T.,.F.,.F.,(8,8),(2,2),(0.,1.),(0.,1.),
  .PIECEWISE_BEZIER_KNOTS.);
#302 = CARTESIAN_POINT('',(-1.6275,-0.8675,-4.307E-17));
#303 = CARTESIAN_POINT('',(-1.78,-0.8675,-4.307E-17));
#304 = CARTESIAN_POINT('',(-1.6275,-0.8675,1.650047382755));
#305 = CARTESIAN_POINT('',(-1.78,-0.8675,1.804660117544));
#306 = CARTESIAN_POINT('',(0.323942487271,-0.8675,3.046525383113));
#307 = CARTESIAN_POINT('',(0.354296545218,-0.8675,3.331990895202));
#308 = CARTESIAN_POINT('',(3.153653943547,-0.8675,1.720793177942));
#309 = CARTESIAN_POINT('',(3.449157615677,-0.8675,1.882034935014));
#310 = CARTESIAN_POINT('',(3.153653943547,-0.8675,-1.720793177942));
#311 = CARTESIAN_POINT('',(3.449157615677,-0.8675,-1.882034935014));
#312 = CARTESIAN_POINT('',(0.323942487271,-0.8675,-3.046525383113));
#313 = CARTESIAN_POINT('',(0.354296545218,-0.8675,-3.331990895202));
#314 = CARTESIAN_POINT('',(-1.6275,-0.8675,-1.650047382755));
#315 = CARTESIAN_POINT('',(-1.78,-0.8675,-1.804660117544));
#316 = CARTESIAN_POINT('',(-1.6275,-0.8675,-4.4169E-16));
#317 = CARTESIAN_POINT('',(-1.78,-0.8675,-4.7904E-16));
#318 = ( GEOMETRIC_REPRESENTATION_CONTEXT(3) 
GLOBAL_UNCERTAINTY_ASSIGNED_CONTEXT((#322)) GLOBAL_UNIT_ASSIGNED_CONTEXT
((#319,#320,#321)) REPRESENTATION_CONTEXT('Context #1',
  '3D Context with UNIT and UNCERTAINTY') );
#319 = ( LENGTH_UNIT() NAMED_UNIT(*) SI_UNIT($,.METRE.) );
#320 = ( NAMED_UNIT(*) PLANE_ANGLE_UNIT() SI_UNIT($,.RADIAN.) );
#321 = ( NAMED_UNIT(*) SI_UNIT($,.STERADIAN.) SOLID_ANGLE_UNIT() );
#322 = UNCERTAINTY_MEASURE_WITH_UNIT(LENGTH_MEASURE(1.E-10),#319,
  'distance_accuracy_value','confusion accuracy');
#323 = CONTEXT_DEPENDENT_SHAPE_REPRESENTATION(#324,#326);
#324 = ( REPRESENTATION_RELATIONSHIP('','',#263,#10) 
REPRESENTATION_RELATIONSHIP_WITH_TRANSFORMATION(#325) 
SHAPE_REPRESENTATION_RELATIONSHIP() );
#325 = ITEM_DEFINED_TRANSFORMATION('','',#11,#27);
#326 = PRODUCT_DEFINITION_SHAPE('Placement','Placement of an item',#327
  );
#327 = NEXT_ASSEMBLY_USAGE_OCCURRENCE('4','upper_plate_surface','',#5,
  #258,$);
#328 = PRODUCT_RELATED_PRODUCT_CATEGORY('part',$,(#260));
#329 = MECHANICAL_DESIGN_GEOMETRIC_PRESENTATION_REPRESENTATION('',(#330)
  ,#245);
#330 = STYLED_ITEM('color',(#331),#193);
#331 = PRESENTATION_STYLE_ASSIGNMENT((#332,#338));
#332 = SURFACE_STYLE_USAGE(.BOTH.,#333);
#333 = SURFACE_SIDE_STYLE('',(#334));
#334 = SURFACE_STYLE_FILL_AREA(#335);
#335 = FILL_AREA_STYLE('',(#336));
#336 = FILL_AREA_STYLE_COLOUR('',#337);
#337 = COLOUR_RGB('',0.678431390124,0.709803936702,0.741176476869);
#338 = CURVE_STYLE('',#339,POSITIVE_LENGTH_MEASURE(0.1),#340);
#339 = DRAUGHTING_PRE_DEFINED_CURVE_FONT('continuous');
#340 = COLOUR_RGB('',9.803921802644E-02,9.803921802644E-02,
  9.803921802644E-02);
#341 = MECHANICAL_DESIGN_GEOMETRIC_PRESENTATION_REPRESENTATION('',(#342)
  ,#318);
#342 = STYLED_ITEM('color',(#343),#266);
#343 = PRESENTATION_STYLE_ASSIGNMENT((#344,#349));
#344 = SURFACE_STYLE_USAGE(.BOTH.,#345);
#345 = SURFACE_SIDE_STYLE('',(#346));
#346 = SURFACE_STYLE_FILL_AREA(#347);
#347 = FILL_AREA_STYLE('',(#348));
#348 = FILL_AREA_STYLE_COLOUR('',#337);
#349 = CURVE_STYLE('',#350,POSITIVE_LENGTH_MEASURE(0.1),#340);
#350 = DRAUGHTING_PRE_DEFINED_CURVE_FONT('continuous');
#351 = MECHANICAL_DESIGN_GEOMETRIC_PRESENTATION_REPRESENTATION('',(#352)
  ,#172);
#352 = STYLED_ITEM('color',(#353),#120);
#353 = PRESENTATION_STYLE_ASSIGNMENT((#354,#359));
#354 = SURFACE_STYLE_USAGE(.BOTH.,#355);
#355 = SURFACE_SIDE_STYLE('',(#356));
#356 = SURFACE_STYLE_FILL_AREA(#357);
#357 = FILL_AREA_STYLE('',(#358));
#358 = FILL_AREA_STYLE_COLOUR('',#337);
#359 = CURVE_STYLE('',#360,POSITIVE_LENGTH_MEASURE(0.1),#340);
#360 = DRAUGHTING_PRE_DEFINED_CURVE_FONT('continuous');
#361 = MECHANICAL_DESIGN_GEOMETRIC_PRESENTATION_REPRESENTATION('',(#362)
  ,#99);
#362 = STYLED_ITEM('color',(#363),#47);
#363 = PRESENTATION_STYLE_ASSIGNMENT((#364,#370));
#364 = SURFACE_STYLE_USAGE(.BOTH.,#365);
#365 = SURFACE_SIDE_STYLE('',(#366));
#366 = SURFACE_STYLE_FILL_AREA(#367);
#367 = FILL_AREA_STYLE('',(#368));
#368 = FILL_AREA_STYLE_COLOUR('',#369);
#369 = COLOUR_RGB('',0.172549024526,0.858823546443,0.560784336289);
#370 = CURVE_STYLE('',#371,POSITIVE_LENGTH_MEASURE(0.1),#340);
#371 = DRAUGHTING_PRE_DEFINED_CURVE_FONT('continuous');
ENDSEC;
END-ISO-10303-21;
