ISO-10303-21;
HEADER;
/*Generated by software containing ST-Developer
 * from STEP Tools, Inc. (www.steptools.com) 
 */
/*OPTION: using custom renumber hook */
/*description */
/*implementation_level */
FILE_DESCRIPTION(('STEP AP242 Edition 2','STEP AP242 Edition 2''CAx-IF Rec.Pracs.---Representation and Presentation of Product Manufa
cturing Information (PMI)---4.0---2014-10-13','STEP AP242 Edition 2''CAx-IF Rec.Pracs.---Representation and Presentation of Product Manufa
cturing Information (PMI)---4.0---2014-10-13''CAx-IF Rec.Pracs.---3D Tessellated Geometry---0.4---2014-09-14','STEP AP242 Edition 2''CAx-IF Rec.Pracs.---Representation and Presentation of Product Manufa
cturing Information (PMI)---4.0---2014-10-13''CAx-IF Rec.Pracs.---3D Tessellated Geometry---0.4---2014-09-14''2;1','STEP AP242 Edition 2''CAx-IF Rec.Pracs.---Representation and Presentation of Product Manufa
cturing Information (PMI)---4.0---2014-10-13''CAx-IF Rec.Pracs.---3D Tessellated Geometry---0.4---2014-09-14''2;1''CAx-IF Rec.Pracs.---User Defined Attributes---1.5---2016-08-15'),'2;1');
/*name */
/*time_stamp */
/*author */
/*organization */
/*preprocessor_version */
/*originating_system */
/*authorisation */
FILE_NAME('/vol/tmp/translate-10301425757512940259/SKIRT_730-C-501_260130.step','2026-03-16T07:49:06',(''),(''),'ST-DEVELOPER v20','ONSHAPE BY PTC INC, 1.212','  ');
FILE_SCHEMA(('AP242_MANAGED_MODEL_BASED_3D_ENGINEERING_MIM_LF { 1 0 10303 442 3 1 4 }'));
ENDSEC;
DATA;
#10=B_SPLINE_CURVE_WITH_KNOTS('',3,(#211,#212,#213,#214,#215,#216,#217,#218,#219,#220,#221,#222,#223,#224,#225,#226,#227,#228,#229,#230,#231,#232,#233,#234,#235,#236,#237,#238,#239,#240,#241,#242,#243,#244,#245,#246,#247,#248,#249,#250,#251,#252,#253,#254,#255),.UNSPECIFIED.,.F.,.F.,(4,1,1,1,1,1,1,1,1,1,1,1,1,1,1,1,1,1,1,1,1,1,1,1,1,1,1,1,1,1,1,1,1,1,1,1,1,1,1,1,1,1,4),(6.00164184077176E-16,0.0269100837497041,0.0538201674994075,0.080730251249111,0.0941852931239627,0.107640334998814,0.134550418748518,0.161460502498221,0.174915544373073,0.188370586247925,0.215280669997628,0.242190753747332,0.269100837497035,0.282555879371887,0.296010921246739,0.322921004996442,0.349831088746146,0.363286130620997,0.376741172495849,0.403651256245553,0.430561339995256,0.444016381870108,0.457471423744959,0.470926465619811,0.484381507494663,0.511291591244366,0.53820167499407,0.565111758743773,0.592021842493477,0.61893192624318,0.632386968118032,0.645842009992884,0.659297051867735,0.672752093742587,0.699662177492291,0.726572261241994,0.740027303116846,0.753482344991698,0.780392428741401,0.807302512491104,0.820757554365956,0.834212596240808,0.861122679990511),.UNSPECIFIED.);
#11=B_SPLINE_CURVE_WITH_KNOTS('',3,(#259,#260,#261,#262,#263,#264,#265,#266,#267,#268,#269,#270,#271,#272,#273,#274,#275,#276,#277,#278,#279,#280,#281,#282,#283,#284,#285,#286,#287,#288,#289,#290,#291,#292,#293,#294,#295,#296,#297,#298,#299,#300,#301,#302,#303),.UNSPECIFIED.,.F.,.F.,(4,1,1,1,1,1,1,1,1,1,1,1,1,1,1,1,1,1,1,1,1,1,1,1,1,1,1,1,1,1,1,1,1,1,1,1,1,1,1,1,1,1,4),(0.,0.0269100837497034,0.0538201674994068,0.0807302512491102,0.0941852931239619,0.107640334998814,0.134550418748517,0.16146050249822,0.174915544373072,0.188370586247924,0.215280669997627,0.242190753747331,0.269100837497034,0.282555879371886,0.296010921246737,0.322921004996441,0.349831088746144,0.363286130620996,0.376741172495848,0.403651256245551,0.430561339995254,0.444016381870106,0.457471423744958,0.47092646561981,0.484381507494661,0.511291591244365,0.538201674994068,0.565111758743772,0.592021842493475,0.618931926243178,0.63238696811803,0.645842009992882,0.659297051867733,0.672752093742585,0.699662177492288,0.726572261241992,0.740027303116844,0.753482344991695,0.780392428741399,0.807302512491102,0.820757554365954,0.834212596240806,0.861122679990509),.UNSPECIFIED.);
#12=B_SPLINE_CURVE_WITH_KNOTS('',3,(#304,#305,#306,#307,#308,#309,#310,#311,#312,#313,#314,#315,#316,#317,#318,#319,#320,#321,#322,#323,#324,#325,#326,#327,#328,#329,#330,#331,#332,#333,#334,#335,#336,#337,#338,#339,#340,#341,#342,#343,#344,#345,#346,#347,#348,#349,#350,#351,#352,#353,#354,#355,#356,#357,#358,#359,#360,#361,#362,#363,#364,#365,#366,#367,#368,#369,#370,#371,#372,#373,#374,#375,#376,#377,#378,#379,#380,#381,#382,#383,#384,#385,#386,#387,#388,#389,#390,#391,#392,#393,#394,#395,#396,#397,#398,#399,#400,#401,#402,#403,#404,#405,#406,#407),.UNSPECIFIED.,.T.,.F.,(1,1,1,1,1,1,1,1,1,1,1,1,1,1,1,1,1,1,1,1,1,1,1,1,1,1,1,1,1,1,1,1,1,1,1,1,1,1,1,1,1,1,1,1,1,1,1,1,1,1,1,1,1,1,1,1,1,1,1,1,1,1,1,1,1,1,1,1,1,1,1,1,1,1,1,1,1,1,1,1,1,1,1,1,1,1,1,1,1,1,1,1,1,1,1,1,1,1,1,1,1,1,1,1,1,1,1,1),(-0.0646447767399052,-0.0323223883699524,-0.0161611941849764,1.38889816927763E-17,0.0161611941849763,0.0323223883699527,0.0646447767399053,0.0969671651098579,0.113128359294834,0.129289553479811,0.161611941849763,0.17777313603474,0.193934330219716,0.210095524404692,0.226256718589668,0.258579106959621,0.290901495329574,0.30706268951455,0.323223883699526,0.339385077884503,0.355546272069479,0.371707466254455,0.387868660439432,0.404029854624408,0.420191048809384,0.436352242994361,0.452513437179337,0.48483582554929,0.517158213919242,0.533319408104219,0.549480602289195,0.565641796474171,0.581802990659148,0.6141253790291,0.646447767399053,0.662608961584029,0.678770155769005,0.711092544138958,0.727253738323934,0.743414932508911,0.759576126693887,0.775737320878863,0.79189851506384,0.808059709248816,0.840382097618769,0.872704485988721,0.888865680173698,0.905026874358674,0.92118806854365,0.937349262728627,0.953510456913603,0.969671651098579,0.985832845283556,1.00199403946853,1.03431642783848,1.06663881620844,1.08280001039341,1.09896120457839,1.11512239876337,1.13128359294834,1.14744478713332,1.1636059813183,1.19592836968825,1.2282507580582,1.26057314642815,1.27673434061313,1.29289553479811,1.30905672898308,1.32521792316806,1.34137911735303,1.35754031153801,1.38986269990796,1.42218508827792,1.43834628246289,1.45450747664787,1.47066867083285,1.48682986501782,1.5029910592028,1.51915225338777,1.53531344757275,1.55147464175773,1.58379703012768,1.61611941849763,1.63228061268261,1.64844180686758,1.66460300105256,1.68076419523754,1.69692538942251,1.71308658360749,1.74540897197744,1.76157016616242,1.7777313603474,1.81005374871735,1.8423761370873,1.85853733127228,1.87469852545725,1.89085971964223,1.90702091382721,1.93934330219716,1.97166569056711,1.98782688475209,2.00398807893706,2.03631046730702,2.05247166149199,2.06863285567697,2.08479404986195,2.10095524404692,2.13327763241687),.UNSPECIFIED.);
#13=B_SPLINE_CURVE_WITH_KNOTS('',3,(#416,#417,#418,#419,#420,#421,#422,#423,#424,#425,#426,#427,#428,#429,#430,#431,#432,#433,#434,#435,#436,#437,#438,#439,#440,#441,#442,#443,#444,#445,#446,#447,#448,#449,#450,#451,#452,#453,#454,#455,#456,#457,#458,#459,#460),.UNSPECIFIED.,.F.,.F.,(4,1,1,1,1,1,1,1,1,1,1,1,1,1,1,1,1,1,1,1,1,1,1,1,1,1,1,1,1,1,1,1,1,1,1,1,1,1,1,1,1,1,4),(0.,0.0269100837497035,0.0538201674994071,0.0807302512491106,0.0941852931239624,0.107640334998814,0.134550418748518,0.161460502498221,0.174915544373073,0.188370586247925,0.215280669997628,0.242190753747332,0.269100837497035,0.282555879371887,0.296010921246739,0.322921004996442,0.349831088746146,0.363286130620998,0.37674117249585,0.403651256245553,0.430561339995257,0.444016381870108,0.45747142374496,0.470926465619812,0.484381507494664,0.511291591244367,0.538201674994071,0.565111758743774,0.592021842493478,0.618931926243181,0.632386968118033,0.645842009992885,0.659297051867737,0.672752093742589,0.699662177492292,0.726572261241996,0.740027303116847,0.753482344991699,0.780392428741403,0.807302512491106,0.820757554365958,0.83421259624081,0.861122679990513),.UNSPECIFIED.);
#14=B_SPLINE_CURVE_WITH_KNOTS('',3,(#464,#465,#466,#467,#468,#469,#470,#471,#472,#473,#474,#475,#476,#477,#478,#479,#480,#481,#482,#483,#484,#485,#486,#487,#488,#489,#490,#491,#492,#493,#494,#495,#496,#497,#498,#499,#500,#501,#502,#503,#504,#505,#506,#507,#508),.UNSPECIFIED.,.F.,.F.,(4,1,1,1,1,1,1,1,1,1,1,1,1,1,1,1,1,1,1,1,1,1,1,1,1,1,1,1,1,1,1,1,1,1,1,1,1,1,1,1,1,1,4),(0.,0.0269100837497033,0.0538201674994067,0.08073025124911,0.0941852931239616,0.107640334998813,0.134550418748517,0.16146050249822,0.174915544373072,0.188370586247923,0.215280669997627,0.24219075374733,0.269100837497033,0.282555879371885,0.296010921246737,0.32292100499644,0.349831088746143,0.363286130620995,0.376741172495847,0.40365125624555,0.430561339995253,0.444016381870105,0.457471423744957,0.470926465619808,0.48438150749466,0.511291591244363,0.538201674994066,0.56511175874377,0.592021842493473,0.618931926243177,0.632386968118028,0.64584200999288,0.659297051867731,0.672752093742583,0.699662177492286,0.72657226124199,0.740027303116841,0.753482344991693,0.780392428741396,0.8073025124911,0.820757554365951,0.834212596240803,0.861122679990506),.UNSPECIFIED.);
#15=B_SPLINE_CURVE_WITH_KNOTS('',3,(#509,#510,#511,#512,#513,#514,#515,#516,#517,#518,#519,#520,#521,#522,#523,#524,#525,#526,#527,#528,#529,#530,#531,#532,#533,#534,#535,#536,#537,#538,#539,#540,#541,#542,#543,#544,#545,#546,#547,#548,#549,#550,#551,#552,#553,#554,#555,#556,#557,#558,#559,#560,#561,#562,#563,#564,#565,#566,#567,#568,#569,#570,#571,#572,#573,#574,#575,#576,#577,#578,#579,#580,#581,#582,#583,#584,#585,#586,#587,#588,#589,#590,#591,#592,#593,#594,#595,#596,#597,#598,#599,#600,#601,#602,#603,#604,#605,#606,#607,#608,#609,#610,#611,#612,#613,#614,#615),.UNSPECIFIED.,.T.,.F.,(1,1,1,1,1,1,1,1,1,1,1,1,1,1,1,1,1,1,1,1,1,1,1,1,1,1,1,1,1,1,1,1,1,1,1,1,1,1,1,1,1,1,1,1,1,1,1,1,1,1,1,1,1,1,1,1,1,1,1,1,1,1,1,1,1,1,1,1,1,1,1,1,1,1,1,1,1,1,1,1,1,1,1,1,1,1,1,1,1,1,1,1,1,1,1,1,1,1,1,1,1,1,1,1,1,1,1,1,1,1,1),(-0.0685855158880759,-0.034292757944038,-0.017146378972019,5.12278473325907E-18,0.017146378972019,0.034292757944038,0.068585515888076,0.102878273832114,0.120024652804133,0.137171031776152,0.154317410748171,0.17146378972019,0.188610168692209,0.205756547664228,0.222902926636247,0.240049305608266,0.274342063552304,0.308634821496342,0.325781200468361,0.34292757944038,0.360073958412399,0.377220337384418,0.394366716356437,0.411513095328456,0.428659474300475,0.445805853272494,0.462952232244513,0.480098611216532,0.51439136916057,0.548684127104608,0.565830506076627,0.582976885048646,0.600123264020665,0.617269642992684,0.651562400936722,0.68585515888076,0.703001537852779,0.720147916824798,0.754440674768836,0.771587053740856,0.788733432712875,0.805879811684894,0.823026190656913,0.840172569628931,0.85731894860095,0.891611706544989,0.925904464489027,0.943050843461046,0.960197222433065,0.977343601405084,0.994489980377103,1.01163635934912,1.02878273832114,1.04592911729316,1.06307549626518,1.09736825420922,1.13166101215325,1.14880739112527,1.16595377009729,1.18310014906931,1.20024652804133,1.21739290701335,1.23453928598537,1.26883204392941,1.28597842290143,1.30312480187344,1.33741755981748,1.3545639387895,1.37171031776152,1.38885669673354,1.40600307570556,1.42314945467758,1.4402958336496,1.47458859159363,1.50888134953767,1.52602772850969,1.54317410748171,1.56032048645373,1.57746686542575,1.59461324439777,1.61175962336979,1.62890600234181,1.64605238131383,1.68034513925786,1.7146378972019,1.73178427617392,1.74893065514594,1.76607703411796,1.78322341308998,1.800369792062,1.81751617103402,1.85180892897805,1.86895530795007,1.88610168692209,1.92039444486613,1.93754082383815,1.95468720281017,1.97183358178219,1.98897996075421,2.00612633972622,2.02327271869824,2.05756547664228,2.09185823458632,2.10900461355834,2.12615099253036,2.1604437504744,2.17759012944641,2.19473650841843,2.21188288739045,2.22902926636247,2.26332202430651),.UNSPECIFIED.);
#16=LINE('',#208,#20);
#17=LINE('',#257,#21);
#18=LINE('',#413,#22);
#19=LINE('',#462,#23);
#20=VECTOR('',#186,1.);
#21=VECTOR('',#187,1.);
#22=VECTOR('',#192,1.);
#23=VECTOR('',#193,1.);
#24=SHAPE_REPRESENTATION_RELATIONSHIP('','',#151,#27);
#25=SHAPE_REPRESENTATION_RELATIONSHIP('','',#152,#28);
#26=SHAPE_REPRESENTATION_RELATIONSHIP('','',#153,#29);
#27=MANIFOLD_SURFACE_SHAPE_REPRESENTATION('',(#145),#620);
#28=MANIFOLD_SURFACE_SHAPE_REPRESENTATION('',(#146),#621);
#29=MANIFOLD_SURFACE_SHAPE_REPRESENTATION('',(#147),#622);
#30=ORIENTED_EDGE('',*,*,#46,.T.);
#31=ORIENTED_EDGE('',*,*,#47,.T.);
#32=ORIENTED_EDGE('',*,*,#48,.T.);
#33=ORIENTED_EDGE('',*,*,#49,.T.);
#34=ORIENTED_EDGE('',*,*,#50,.T.);
#35=ORIENTED_EDGE('',*,*,#51,.T.);
#36=ORIENTED_EDGE('',*,*,#52,.T.);
#37=ORIENTED_EDGE('',*,*,#53,.T.);
#38=ORIENTED_EDGE('',*,*,#54,.T.);
#39=ORIENTED_EDGE('',*,*,#55,.F.);
#40=ORIENTED_EDGE('',*,*,#56,.T.);
#41=ORIENTED_EDGE('',*,*,#57,.F.);
#42=ORIENTED_EDGE('',*,*,#58,.F.);
#43=ORIENTED_EDGE('',*,*,#59,.F.);
#44=ORIENTED_EDGE('',*,*,#60,.F.);
#45=ORIENTED_EDGE('',*,*,#61,.T.);
#46=EDGE_CURVE('',#62,#62,#78,.T.);
#47=EDGE_CURVE('',#63,#63,#79,.F.);
#48=EDGE_CURVE('',#64,#64,#80,.T.);
#49=EDGE_CURVE('',#65,#65,#81,.T.);
#50=EDGE_CURVE('',#66,#67,#16,.T.);
#51=EDGE_CURVE('',#67,#68,#10,.T.);
#52=EDGE_CURVE('',#68,#69,#17,.F.);
#53=EDGE_CURVE('',#69,#66,#11,.T.);
#54=EDGE_CURVE('',#70,#70,#12,.T.);
#55=EDGE_CURVE('',#71,#71,#82,.F.);
#56=EDGE_CURVE('',#72,#72,#83,.T.);
#57=EDGE_CURVE('',#73,#74,#18,.F.);
#58=EDGE_CURVE('',#75,#73,#13,.T.);
#59=EDGE_CURVE('',#76,#75,#19,.T.);
#60=EDGE_CURVE('',#74,#76,#14,.T.);
#61=EDGE_CURVE('',#77,#77,#15,.T.);
#62=VERTEX_POINT('',#197);
#63=VERTEX_POINT('',#199);
#64=VERTEX_POINT('',#203);
#65=VERTEX_POINT('',#205);
#66=VERTEX_POINT('',#209);
#67=VERTEX_POINT('',#210);
#68=VERTEX_POINT('',#256);
#69=VERTEX_POINT('',#258);
#70=VERTEX_POINT('',#408);
#71=VERTEX_POINT('',#410);
#72=VERTEX_POINT('',#412);
#73=VERTEX_POINT('',#414);
#74=VERTEX_POINT('',#415);
#75=VERTEX_POINT('',#461);
#76=VERTEX_POINT('',#463);
#77=VERTEX_POINT('',#616);
#78=CIRCLE('',#156,1.6175);
#79=CIRCLE('',#157,1.6175);
#80=CIRCLE('',#160,1.6175);
#81=CIRCLE('',#161,1.6175);
#82=CIRCLE('',#164,1.6175);
#83=CIRCLE('',#165,1.6175);
#84=EDGE_LOOP('',(#30));
#85=EDGE_LOOP('',(#31));
#86=EDGE_LOOP('',(#32));
#87=EDGE_LOOP('',(#33));
#88=EDGE_LOOP('',(#34,#35,#36,#37));
#89=EDGE_LOOP('',(#38));
#90=EDGE_LOOP('',(#39));
#91=EDGE_LOOP('',(#40));
#92=EDGE_LOOP('',(#41,#42,#43,#44));
#93=EDGE_LOOP('',(#45));
#94=FACE_BOUND('',#84,.T.);
#95=FACE_BOUND('',#85,.T.);
#96=FACE_BOUND('',#86,.T.);
#97=FACE_BOUND('',#87,.T.);
#98=FACE_BOUND('',#88,.T.);
#99=FACE_BOUND('',#89,.T.);
#100=FACE_BOUND('',#90,.T.);
#101=FACE_BOUND('',#91,.T.);
#102=FACE_BOUND('',#92,.T.);
#103=FACE_BOUND('',#93,.T.);
#104=CYLINDRICAL_SURFACE('',#155,1.6175);
#105=CYLINDRICAL_SURFACE('',#159,1.6175);
#106=CYLINDRICAL_SURFACE('',#163,1.6175);
#107=OVER_RIDING_STYLED_ITEM('',(#118),#108,#114);
#108=ADVANCED_FACE('Face appearance 1',(#94,#95),#104,.T.);
#109=ADVANCED_FACE('',(#96,#97),#105,.F.);
#110=ADVANCED_FACE('',(#98,#99,#100,#101,#102,#103),#106,.T.);
#111=OPEN_SHELL('',(#108));
#112=OPEN_SHELL('',(#109));
#113=OPEN_SHELL('',(#110));
#114=STYLED_ITEM('',(#117),#145);
#115=STYLED_ITEM('',(#119),#146);
#116=STYLED_ITEM('',(#120),#147);
#117=PRESENTATION_STYLE_ASSIGNMENT((#121));
#118=PRESENTATION_STYLE_ASSIGNMENT((#122));
#119=PRESENTATION_STYLE_ASSIGNMENT((#123));
#120=PRESENTATION_STYLE_ASSIGNMENT((#124));
#121=SURFACE_STYLE_USAGE(.BOTH.,#125);
#122=SURFACE_STYLE_USAGE(.BOTH.,#126);
#123=SURFACE_STYLE_USAGE(.BOTH.,#127);
#124=SURFACE_STYLE_USAGE(.BOTH.,#128);
#125=SURFACE_SIDE_STYLE('',(#129));
#126=SURFACE_SIDE_STYLE('',(#130));
#127=SURFACE_SIDE_STYLE('',(#131));
#128=SURFACE_SIDE_STYLE('',(#132));
#129=SURFACE_STYLE_FILL_AREA(#133);
#130=SURFACE_STYLE_FILL_AREA(#134);
#131=SURFACE_STYLE_FILL_AREA(#135);
#132=SURFACE_STYLE_FILL_AREA(#136);
#133=FILL_AREA_STYLE('',(#137));
#134=FILL_AREA_STYLE('',(#138));
#135=FILL_AREA_STYLE('',(#139));
#136=FILL_AREA_STYLE('',(#140));
#137=FILL_AREA_STYLE_COLOUR('',#141);
#138=FILL_AREA_STYLE_COLOUR('',#142);
#139=FILL_AREA_STYLE_COLOUR('',#143);
#140=FILL_AREA_STYLE_COLOUR('',#144);
#141=COLOUR_RGB('',0.980392156862745,0.713725490196078,0.00392156862745098);
#142=COLOUR_RGB('',0.6,0.6,0.6);
#143=COLOUR_RGB('',0.972549019607843,0.529411764705882,0.00392156862745098);
#144=COLOUR_RGB('',0.498039215686275,0.498039215686275,0.498039215686275);
#145=SHELL_BASED_SURFACE_MODEL('skir_carbo_und',(#111));
#146=SHELL_BASED_SURFACE_MODEL('skir_sless',(#112));
#147=SHELL_BASED_SURFACE_MODEL('skir_carbo_mid',(#113));
#148=SHAPE_DEFINITION_REPRESENTATION(#635,#151);
#149=SHAPE_DEFINITION_REPRESENTATION(#636,#152);
#150=SHAPE_DEFINITION_REPRESENTATION(#637,#153);
#151=SHAPE_REPRESENTATION('skir_carbo_und',(#154),#620);
#152=SHAPE_REPRESENTATION('skir_sless',(#158),#621);
#153=SHAPE_REPRESENTATION('skir_carbo_mid',(#162),#622);
#154=AXIS2_PLACEMENT_3D('',#194,#166,#167);
#155=AXIS2_PLACEMENT_3D('',#195,#168,#169);
#156=AXIS2_PLACEMENT_3D('',#196,#170,#171);
#157=AXIS2_PLACEMENT_3D('',#198,#172,#173);
#158=AXIS2_PLACEMENT_3D('',#200,#174,#175);
#159=AXIS2_PLACEMENT_3D('',#201,#176,#177);
#160=AXIS2_PLACEMENT_3D('',#202,#178,#179);
#161=AXIS2_PLACEMENT_3D('',#204,#180,#181);
#162=AXIS2_PLACEMENT_3D('',#206,#182,#183);
#163=AXIS2_PLACEMENT_3D('',#207,#184,#185);
#164=AXIS2_PLACEMENT_3D('',#409,#188,#189);
#165=AXIS2_PLACEMENT_3D('',#411,#190,#191);
#166=DIRECTION('',(0.,0.,1.));
#167=DIRECTION('',(1.,0.,0.));
#168=DIRECTION('',(8.32688846403401E-16,1.,2.9582283945788E-31));
#169=DIRECTION('',(-1.,8.32688846403401E-16,0.));
#170=DIRECTION('',(8.32688846403401E-16,1.,2.9582283945788E-31));
#171=DIRECTION('',(-1.,8.32688846403401E-16,2.4632837892796E-46));
#172=DIRECTION('',(1.08468374467891E-30,1.,2.33363072919793E-61));
#173=DIRECTION('',(-1.,1.08468374467891E-30,0.));
#174=DIRECTION('',(0.,0.,1.));
#175=DIRECTION('',(1.,0.,0.));
#176=DIRECTION('',(0.,1.,0.));
#177=DIRECTION('',(0.,0.,1.));
#178=DIRECTION('',(0.,-1.,0.));
#179=DIRECTION('',(0.,0.,-1.));
#180=DIRECTION('',(0.,1.,0.));
#181=DIRECTION('',(0.,0.,1.));
#182=DIRECTION('',(0.,0.,1.));
#183=DIRECTION('',(1.,0.,0.));
#184=DIRECTION('',(0.,-1.,0.));
#185=DIRECTION('',(0.,0.,-1.));
#186=DIRECTION('',(0.,-1.,0.));
#187=DIRECTION('',(0.,-1.,0.));
#188=DIRECTION('',(1.08468374467891E-30,1.,2.33363072919793E-61));
#189=DIRECTION('',(-1.,1.08468374467891E-30,0.));
#190=DIRECTION('',(0.,-1.,0.));
#191=DIRECTION('',(0.,0.,-1.));
#192=DIRECTION('',(0.,-1.,0.));
#193=DIRECTION('',(0.,-1.,0.));
#194=CARTESIAN_POINT('',(0.,0.,0.));
#195=CARTESIAN_POINT('',(6.22936432853165E-15,-1.2825,-3.79392791604731E-31));
#196=CARTESIAN_POINT('',(6.22936432853165E-15,-1.2825,-3.79392791604731E-31));
#197=CARTESIAN_POINT('',(-1.61749999999999,-1.2825,-3.79392791604731E-31));
#198=CARTESIAN_POINT('',(6.57493019978906E-15,-0.8675,-2.56626313229711E-31));
#199=CARTESIAN_POINT('',(-1.61749999999999,-0.8675,-2.56626313229711E-31));
#200=CARTESIAN_POINT('',(0.,0.,0.));
#201=CARTESIAN_POINT('',(6.22936432853165E-15,7.385,-3.79392791604731E-31));
#202=CARTESIAN_POINT('',(6.22936432853165E-15,7.385,-3.79392791604731E-31));
#203=CARTESIAN_POINT('',(6.22936432853165E-15,7.385,-1.6175));
#204=CARTESIAN_POINT('',(6.22936432853165E-15,9.385,-3.79392791604731E-31));
#205=CARTESIAN_POINT('',(6.22936432853165E-15,9.385,1.6175));
#206=CARTESIAN_POINT('',(0.,0.,0.));
#207=CARTESIAN_POINT('',(6.22936432853165E-15,7.385,-3.79392791604731E-31));
#208=CARTESIAN_POINT('',(0.275,7.385,1.5939514578556));
#209=CARTESIAN_POINT('',(0.275,0.41,1.5939514578556));
#210=CARTESIAN_POINT('',(0.275,-0.04,1.5939514578556));
#211=CARTESIAN_POINT('',(0.275,-0.0399999999999994,1.59395145785561));
#212=CARTESIAN_POINT('',(0.275,-0.0491004946056269,1.59395145785561));
#213=CARTESIAN_POINT('',(0.274099465612971,-0.0671435983038175,1.59410721282327));
#214=CARTESIAN_POINT('',(0.270138681653359,-0.0937637552498932,1.59478535212058));
#215=CARTESIAN_POINT('',(0.26469020975175,-0.115549367409807,1.59569991566905));
#216=CARTESIAN_POINT('',(0.258987881331082,-0.132801857135671,1.59663357233217));
#217=CARTESIAN_POINT('',(0.252466023962347,-0.149672538999886,1.59768200634364));
#218=CARTESIAN_POINT('',(0.242867004830813,-0.16992496672888,1.59917987556095));
#219=CARTESIAN_POINT('',(0.231357427668215,-0.189129398163026,1.60088261616551));
#220=CARTESIAN_POINT('',(0.221003047025698,-0.203841633879936,1.60233770162799));
#221=CARTESIAN_POINT('',(0.209834604143636,-0.218151942280971,1.60384960482778));
#222=CARTESIAN_POINT('',(0.19474434873746,-0.234780438883301,1.60577169513935));
#223=CARTESIAN_POINT('',(0.174878213632406,-0.252796115339384,1.60806358427876));
#224=CARTESIAN_POINT('',(0.156866568260558,-0.266189321200866,1.6099069065568));
#225=CARTESIAN_POINT('',(0.141527399811127,-0.275916415399301,1.61131060181738));
#226=CARTESIAN_POINT('',(0.125859095768847,-0.284796982397427,1.61262997614332));
#227=CARTESIAN_POINT('',(0.105617003566611,-0.294381869478925,1.61411191354943));
#228=CARTESIAN_POINT('',(0.0845212546010674,-0.301959803802701,1.6153306434361));
#229=CARTESIAN_POINT('',(0.067118966142077,-0.306799473333341,1.61612487664968));
#230=CARTESIAN_POINT('',(0.0493601593217099,-0.310800381395567,1.61678955922026));
#231=CARTESIAN_POINT('',(0.0271160174751572,-0.314099315034725,1.61734656134603));
#232=CARTESIAN_POINT('',(0.00471664804617457,-0.315216369522319,1.61753683535507));
#233=CARTESIAN_POINT('',(-0.0132751265471901,-0.314790425125922,1.61746434214427));
#234=CARTESIAN_POINT('',(-0.0268200165117845,-0.313802328298887,1.61729664029005));
#235=CARTESIAN_POINT('',(-0.0403686588220438,-0.312134091195883,1.61701482228837));
#236=CARTESIAN_POINT('',(-0.0581264880785411,-0.309049806864194,1.61649752677548));
#237=CARTESIAN_POINT('',(-0.0798851358622214,-0.303596842900824,1.61559443456694));
#238=CARTESIAN_POINT('',(-0.105239896962186,-0.294549466108017,1.61413811651186));
#239=CARTESIAN_POINT('',(-0.129923160456785,-0.282879643570458,1.61233330620636));
#240=CARTESIAN_POINT('',(-0.152976970154604,-0.269045974350791,1.61030154187093));
#241=CARTESIAN_POINT('',(-0.170958680408108,-0.255728450055895,1.60846624497296));
#242=CARTESIAN_POINT('',(-0.184573112722697,-0.244007111482794,1.60694525968399));
#243=CARTESIAN_POINT('',(-0.19442856504028,-0.23463841857158,1.60578176129291));
#244=CARTESIAN_POINT('',(-0.203766251628286,-0.224837580154964,1.60462249803057));
#245=CARTESIAN_POINT('',(-0.215488093336378,-0.211260754432767,1.60310000021274));
#246=CARTESIAN_POINT('',(-0.22882123439735,-0.193313729565438,1.60125659627771));
#247=CARTESIAN_POINT('',(-0.240384506725448,-0.174103728003883,1.59954788805968));
#248=CARTESIAN_POINT('',(-0.248573348832284,-0.157890031229874,1.59828944966136));
#249=CARTESIAN_POINT('',(-0.255904618846795,-0.141388282655976,1.59713526292356));
#250=CARTESIAN_POINT('',(-0.263475047454846,-0.120288380265727,1.59590342193612));
#251=CARTESIAN_POINT('',(-0.268958948146466,-0.0985465404139951,1.59498353341195));
#252=CARTESIAN_POINT('',(-0.272073843190831,-0.0807742863987921,1.59445397519291));
#253=CARTESIAN_POINT('',(-0.27432513566162,-0.0627086454836498,1.59406822491105));
#254=CARTESIAN_POINT('',(-0.275,-0.0491005042397437,1.5939514578556));
#255=CARTESIAN_POINT('',(-0.275,-0.04,1.5939514578556));
#256=CARTESIAN_POINT('',(-0.275,-0.04,1.5939514578556));
#257=CARTESIAN_POINT('',(-0.275,7.385,1.5939514578556));
#258=CARTESIAN_POINT('',(-0.275,0.41,1.5939514578556));
#259=CARTESIAN_POINT('',(-0.275,0.41,1.5939514578556));
#260=CARTESIAN_POINT('',(-0.275,0.419100494605627,1.5939514578556));
#261=CARTESIAN_POINT('',(-0.274099465612974,0.437143598303817,1.59410721282327));
#262=CARTESIAN_POINT('',(-0.270138681653361,0.463763755249893,1.59478535212058));
#263=CARTESIAN_POINT('',(-0.264690209751752,0.485549367409807,1.59569991566904));
#264=CARTESIAN_POINT('',(-0.258987881331084,0.502801857135671,1.59663357233216));
#265=CARTESIAN_POINT('',(-0.252466023962348,0.519672538999886,1.59768200634364));
#266=CARTESIAN_POINT('',(-0.242867004830815,0.539924966728879,1.59917987556095));
#267=CARTESIAN_POINT('',(-0.231357427668217,0.559129398163026,1.60088261616551));
#268=CARTESIAN_POINT('',(-0.2210030470257,0.573841633879936,1.60233770162799));
#269=CARTESIAN_POINT('',(-0.209834604143637,0.588151942280971,1.60384960482778));
#270=CARTESIAN_POINT('',(-0.194744348737463,0.604780438883301,1.60577169513935));
#271=CARTESIAN_POINT('',(-0.174878213632407,0.622796115339384,1.60806358427876));
#272=CARTESIAN_POINT('',(-0.156866568260561,0.636189321200866,1.60990690655679));
#273=CARTESIAN_POINT('',(-0.141527399811129,0.645916415399301,1.61131060181738));
#274=CARTESIAN_POINT('',(-0.12585909576885,0.654796982397426,1.61262997614331));
#275=CARTESIAN_POINT('',(-0.105617003566613,0.664381869478925,1.61411191354943));
#276=CARTESIAN_POINT('',(-0.0845212546010702,0.6719598038027,1.6153306434361));
#277=CARTESIAN_POINT('',(-0.0671189661420789,0.676799473333341,1.61612487664968));
#278=CARTESIAN_POINT('',(-0.0493601593217118,0.680800381395567,1.61678955922026));
#279=CARTESIAN_POINT('',(-0.027116017475159,0.684099315034725,1.61734656134603));
#280=CARTESIAN_POINT('',(-0.00471664804617678,0.685216369522319,1.61753683535507));
#281=CARTESIAN_POINT('',(0.0132751265471884,0.684790425125922,1.61746434214427));
#282=CARTESIAN_POINT('',(0.0268200165117816,0.683802328298887,1.61729664029005));
#283=CARTESIAN_POINT('',(0.040368658822042,0.682134091195883,1.61701482228837));
#284=CARTESIAN_POINT('',(0.0581264880785391,0.679049806864194,1.61649752677548));
#285=CARTESIAN_POINT('',(0.0798851358622199,0.673596842900823,1.61559443456694));
#286=CARTESIAN_POINT('',(0.105239896962184,0.664549466108017,1.61413811651186));
#287=CARTESIAN_POINT('',(0.129923160456783,0.652879643570458,1.61233330620636));
#288=CARTESIAN_POINT('',(0.152976970154601,0.639045974350792,1.61030154187093));
#289=CARTESIAN_POINT('',(0.170958680408106,0.625728450055895,1.60846624497296));
#290=CARTESIAN_POINT('',(0.184573112722695,0.614007111482794,1.60694525968399));
#291=CARTESIAN_POINT('',(0.194428565040278,0.60463841857158,1.60578176129291));
#292=CARTESIAN_POINT('',(0.203766251628284,0.594837580154963,1.60462249803057));
#293=CARTESIAN_POINT('',(0.215488093336376,0.581260754432767,1.60310000021274));
#294=CARTESIAN_POINT('',(0.228821234397348,0.563313729565439,1.60125659627771));
#295=CARTESIAN_POINT('',(0.240384506725446,0.544103728003883,1.59954788805968));
#296=CARTESIAN_POINT('',(0.248573348832282,0.527890031229874,1.59828944966137));
#297=CARTESIAN_POINT('',(0.255904618846793,0.511388282655976,1.59713526292357));
#298=CARTESIAN_POINT('',(0.263475047454844,0.490288380265727,1.59590342193612));
#299=CARTESIAN_POINT('',(0.268958948146464,0.468546540413995,1.59498353341195));
#300=CARTESIAN_POINT('',(0.272073843190829,0.450774286398792,1.59445397519292));
#301=CARTESIAN_POINT('',(0.274325135661618,0.43270864548365,1.59406822491106));
#302=CARTESIAN_POINT('',(0.275,0.419100504239744,1.59395145785561));
#303=CARTESIAN_POINT('',(0.275,0.41,1.59395145785561));
#304=CARTESIAN_POINT('',(-1.61744460211763,0.0447286756211795,-0.0163665768726467));
#305=CARTESIAN_POINT('',(-1.61752770207312,0.0451356814170281,2.83349000500775E-06));
#306=CARTESIAN_POINT('',(-1.61744458958988,0.044728598710708,0.016355242912626));
#307=CARTESIAN_POINT('',(-1.61711787056751,0.0431241264001412,0.0379277304063146));
#308=CARTESIAN_POINT('',(-1.61631411823311,0.0391559958900216,0.0645732063654776));
#309=CARTESIAN_POINT('',(-1.61501199047548,0.0326080917273104,0.090731455564949));
#310=CARTESIAN_POINT('',(-1.61368069816086,0.0257554427450224,0.11144618795419));
#311=CARTESIAN_POINT('',(-1.6121852568664,0.0179240802894746,0.131687819024091));
#312=CARTESIAN_POINT('',(-1.61047300247129,0.00870307160035691,0.151129062616429));
#313=CARTESIAN_POINT('',(-1.60858165732257,-0.00189064412684571,0.169810850176182));
#314=CARTESIAN_POINT('',(-1.60708333200481,-0.0105249142973126,0.183440055376119));
#315=CARTESIAN_POINT('',(-1.60551604676932,-0.0198471280305092,0.196678350486791));
#316=CARTESIAN_POINT('',(-1.60334223679613,-0.0332465742811092,0.213838266319035));
#317=CARTESIAN_POINT('',(-1.60057343703139,-0.05133834412924,0.233766028849788));
#318=CARTESIAN_POINT('',(-1.59781119236951,-0.0711914150484848,0.251769019241752));
#319=CARTESIAN_POINT('',(-1.595652664138,-0.088133713559498,0.265010584781936));
#320=CARTESIAN_POINT('',(-1.59407136942991,-0.101376361792544,0.274355437089073));
#321=CARTESIAN_POINT('',(-1.59253957855524,-0.115175539570436,0.28310433789796));
#322=CARTESIAN_POINT('',(-1.59109809173725,-0.129263590787088,0.291089427429582));
#323=CARTESIAN_POINT('',(-1.58975114678297,-0.143675313780462,0.298352070621014));
#324=CARTESIAN_POINT('',(-1.58850904266956,-0.158398100703117,0.304890852060477));
#325=CARTESIAN_POINT('',(-1.58738033499929,-0.173435359068708,0.310709190305221));
#326=CARTESIAN_POINT('',(-1.58637425375491,-0.188787463798454,0.315801651771898));
#327=CARTESIAN_POINT('',(-1.58549943837824,-0.204464453474505,0.320161369488632));
#328=CARTESIAN_POINT('',(-1.58452310923081,-0.22578480436049,0.324963766474245));
#329=CARTESIAN_POINT('',(-1.58370418444604,-0.252488291782134,0.328922580936902));
#330=CARTESIAN_POINT('',(-1.58342466488414,-0.279392013324569,0.33026111559444));
#331=CARTESIAN_POINT('',(-1.58353228305345,-0.301004775796101,0.329745298775355));
#332=CARTESIAN_POINT('',(-1.58378025774903,-0.317285019656488,0.328553177430086));
#333=CARTESIAN_POINT('',(-1.58419585545066,-0.333549074941109,0.326545140887181));
#334=CARTESIAN_POINT('',(-1.58495775582226,-0.354866313483029,0.32283522862109));
#335=CARTESIAN_POINT('',(-1.58628608197286,-0.380989657460557,0.316279059167079));
#336=CARTESIAN_POINT('',(-1.58806751785636,-0.406351440222519,0.307213302705836));
#337=CARTESIAN_POINT('',(-1.58974449464572,-0.426256703796069,0.298388292666073));
#338=CARTESIAN_POINT('',(-1.5915565372807,-0.445638889754717,0.288617189561876));
#339=CARTESIAN_POINT('',(-1.59352976035563,-0.464071857014444,0.277550680280833));
#340=CARTESIAN_POINT('',(-1.595622010589,-0.481617210604716,0.265194601225011));
#341=CARTESIAN_POINT('',(-1.59723934309714,-0.494328014362122,0.255281082470554));
#342=CARTESIAN_POINT('',(-1.59889221601749,-0.506579747742921,0.244725519996215));
#343=CARTESIAN_POINT('',(-1.60057495605256,-0.518403601809086,0.233476363338326));
#344=CARTESIAN_POINT('',(-1.60224440413484,-0.529579591349681,0.221738070541493));
#345=CARTESIAN_POINT('',(-1.60443561849414,-0.543626982670357,0.205460100431016));
#346=CARTESIAN_POINT('',(-1.60708262148477,-0.559611998522004,0.18393672688697));
#347=CARTESIAN_POINT('',(-1.6095313172161,-0.573493124191461,0.160868796181169));
#348=CARTESIAN_POINT('',(-1.61133024130933,-0.583319666155907,0.141400829623591));
#349=CARTESIAN_POINT('',(-1.61256375213269,-0.589906411820967,0.126567346545501));
#350=CARTESIAN_POINT('',(-1.61367683197495,-0.595734907869844,0.111492907766016));
#351=CARTESIAN_POINT('',(-1.61466243395341,-0.600809388705237,0.096182512067633));
#352=CARTESIAN_POINT('',(-1.6155142083328,-0.605132577554047,0.0806358624962826));
#353=CARTESIAN_POINT('',(-1.61622554171937,-0.608700423158853,0.0648502259486176));
#354=CARTESIAN_POINT('',(-1.61678988803242,-0.611504451963303,0.0488278478435885));
#355=CARTESIAN_POINT('',(-1.61733654871649,-0.61420101888316,0.0271149527640735));
#356=CARTESIAN_POINT('',(-1.61760764107428,-0.615526186164755,0.000115800363089628));
#357=CARTESIAN_POINT('',(-1.61734050019176,-0.614220286022803,-0.0267909529105529));
#358=CARTESIAN_POINT('',(-1.61680712433626,-0.611589671556366,-0.0482401547047845));
#359=CARTESIAN_POINT('',(-1.61624797348291,-0.608812413203822,-0.0643030723323454));
#360=CARTESIAN_POINT('',(-1.61553185843089,-0.605221728267097,-0.0802921188875508));
#361=CARTESIAN_POINT('',(-1.61467783829773,-0.600888141191936,-0.0959261876954904));
#362=CARTESIAN_POINT('',(-1.61369198212059,-0.595813608898786,-0.111274094178608));
#363=CARTESIAN_POINT('',(-1.61221283014472,-0.588069676195951,-0.131340551955307));
#364=CARTESIAN_POINT('',(-1.61007747605304,-0.57657999941538,-0.155675062064971));
#365=CARTESIAN_POINT('',(-1.60710623195667,-0.55975381280114,-0.183747513004482));
#366=CARTESIAN_POINT('',(-1.60445472741223,-0.543744558922278,-0.205308861178673));
#367=CARTESIAN_POINT('',(-1.60226946989294,-0.529743170922238,-0.221556457272623));
#368=CARTESIAN_POINT('',(-1.60061035951687,-0.518643993462963,-0.233231620193567));
#369=CARTESIAN_POINT('',(-1.59894412904219,-0.506953515968982,-0.244386223188008));
#370=CARTESIAN_POINT('',(-1.59727634395142,-0.494612553792353,-0.255051249167912));
#371=CARTESIAN_POINT('',(-1.59564703481922,-0.48182113515554,-0.265044565408264));
#372=CARTESIAN_POINT('',(-1.59354822742997,-0.464237674825896,-0.277445269021755));
#373=CARTESIAN_POINT('',(-1.59108523044804,-0.441240894525982,-0.291261797426234));
#374=CARTESIAN_POINT('',(-1.58891015438457,-0.416930764673829,-0.302822238749831));
#375=CARTESIAN_POINT('',(-1.5873812553767,-0.396586524117542,-0.310704942321961));
#376=CARTESIAN_POINT('',(-1.58637002917007,-0.381143276902472,-0.315822823982526));
#377=CARTESIAN_POINT('',(-1.58550081663413,-0.365549788262579,-0.320154295600719));
#378=CARTESIAN_POINT('',(-1.58477814309977,-0.349798644334972,-0.323709649848736));
#379=CARTESIAN_POINT('',(-1.58420695475586,-0.333893422649383,-0.326491245949791));
#380=CARTESIAN_POINT('',(-1.58379209471235,-0.317829334390856,-0.328496140596775));
#381=CARTESIAN_POINT('',(-1.5835382396494,-0.301617542499171,-0.329716725211929));
#382=CARTESIAN_POINT('',(-1.58342189258998,-0.279736987485997,-0.330274400165574));
#383=CARTESIAN_POINT('',(-1.58369941535258,-0.25270926883296,-0.328945584167287));
#384=CARTESIAN_POINT('',(-1.58451378126445,-0.22607008030478,-0.325008826286573));
#385=CARTESIAN_POINT('',(-1.58547285856946,-0.204998187709151,-0.320292689430501));
#386=CARTESIAN_POINT('',(-1.58634216146199,-0.189309896927533,-0.315962894352574));
#387=CARTESIAN_POINT('',(-1.58735717476474,-0.173757785237671,-0.310827739183164));
#388=CARTESIAN_POINT('',(-1.58849034784564,-0.158630802898064,-0.304988317924971));
#389=CARTESIAN_POINT('',(-1.58973426203975,-0.14386478652081,-0.298442044489623));
#390=CARTESIAN_POINT('',(-1.59152610058151,-0.124670069292968,-0.28878332752648));
#391=CARTESIAN_POINT('',(-1.59349641323447,-0.10621779306015,-0.277743675658545));
#392=CARTESIAN_POINT('',(-1.59561043025412,-0.0884731450755876,-0.265265764152025));
#393=CARTESIAN_POINT('',(-1.59778922033141,-0.0713508530650201,-0.251910679571326));
#394=CARTESIAN_POINT('',(-1.60055632293074,-0.0514562978661973,-0.233883006000602));
#395=CARTESIAN_POINT('',(-1.60331543518916,-0.0334202994838024,-0.214032083831159));
#396=CARTESIAN_POINT('',(-1.60546735156888,-0.0201422952855871,-0.197074140535669));
#397=CARTESIAN_POINT('',(-1.60704708396093,-0.0107359774290809,-0.183760646958774));
#398=CARTESIAN_POINT('',(-1.6085591982618,-0.0020177795851097,-0.17002532167474));
#399=CARTESIAN_POINT('',(-1.61045781167042,0.00862020530406426,-0.151293024752846));
#400=CARTESIAN_POINT('',(-1.61259597145773,0.0201365924091492,-0.127031473563724));
#401=CARTESIAN_POINT('',(-1.61435907872345,0.0292690648828771,-0.10169457775678));
#402=CARTESIAN_POINT('',(-1.61551268232138,0.0351251742521727,-0.0806802082892809));
#403=CARTESIAN_POINT('',(-1.61646888552036,0.039920534392167,-0.0594403340859545));
#404=CARTESIAN_POINT('',(-1.61711642503239,0.0431169452980094,-0.0380071625257694));
#405=CARTESIAN_POINT('',(-1.61744460211763,0.0447286756211795,-0.0163665768726467));
#406=CARTESIAN_POINT('',(-1.61752770207312,0.0451356814170281,2.83349000500775E-06));
#407=CARTESIAN_POINT('',(-1.61744458958988,0.044728598710708,0.016355242912626));
#408=CARTESIAN_POINT('',(-1.6175,0.045,-1.13027679232971E-16));
#409=CARTESIAN_POINT('',(6.22936432853165E-15,-0.8675,-3.79392791604731E-31));
#410=CARTESIAN_POINT('',(-1.61749999999999,-0.8675,-3.79392791604731E-31));
#411=CARTESIAN_POINT('',(6.22936432853165E-15,7.385,-3.79392791604731E-31));
#412=CARTESIAN_POINT('',(6.22936432853165E-15,7.385,-1.6175));
#413=CARTESIAN_POINT('',(0.275,7.385,1.5939514578556));
#414=CARTESIAN_POINT('',(0.275,5.36,1.5939514578556));
#415=CARTESIAN_POINT('',(0.275,5.81,1.5939514578556));
#416=CARTESIAN_POINT('',(-0.275,5.36,1.5939514578556));
#417=CARTESIAN_POINT('',(-0.275,5.35089950539437,1.5939514578556));
#418=CARTESIAN_POINT('',(-0.274099465612971,5.33285640169618,1.59410721282327));
#419=CARTESIAN_POINT('',(-0.270138681653358,5.30623624475011,1.59478535212058));
#420=CARTESIAN_POINT('',(-0.264690209751749,5.2844506325902,1.59569991566904));
#421=CARTESIAN_POINT('',(-0.258987881331082,5.26719814286433,1.59663357233216));
#422=CARTESIAN_POINT('',(-0.252466023962346,5.25032746100012,1.59768200634364));
#423=CARTESIAN_POINT('',(-0.242867004830813,5.23007503327112,1.59917987556095));
#424=CARTESIAN_POINT('',(-0.231357427668215,5.21087060183697,1.60088261616551));
#425=CARTESIAN_POINT('',(-0.221003047025697,5.19615836612006,1.60233770162799));
#426=CARTESIAN_POINT('',(-0.209834604143635,5.18184805771903,1.60384960482778));
#427=CARTESIAN_POINT('',(-0.194744348737459,5.1652195611167,1.60577169513935));
#428=CARTESIAN_POINT('',(-0.174878213632405,5.14720388466062,1.60806358427876));
#429=CARTESIAN_POINT('',(-0.156866568260558,5.13381067879914,1.60990690655679));
#430=CARTESIAN_POINT('',(-0.141527399811126,5.1240835846007,1.61131060181738));
#431=CARTESIAN_POINT('',(-0.125859095768846,5.11520301760258,1.61262997614331));
#432=CARTESIAN_POINT('',(-0.105617003566611,5.10561813052107,1.61411191354943));
#433=CARTESIAN_POINT('',(-0.0845212546010661,5.0980401961973,1.6153306434361));
#434=CARTESIAN_POINT('',(-0.0671189661420756,5.09320052666666,1.61612487664968));
#435=CARTESIAN_POINT('',(-0.0493601593217102,5.08919961860443,1.61678955922026));
#436=CARTESIAN_POINT('',(-0.0271160174751567,5.08590068496528,1.61734656134603));
#437=CARTESIAN_POINT('',(-0.00471664804617427,5.08478363047768,1.61753683535507));
#438=CARTESIAN_POINT('',(0.0132751265471907,5.08520957487408,1.61746434214427));
#439=CARTESIAN_POINT('',(0.0268200165117843,5.08619767170111,1.61729664029005));
#440=CARTESIAN_POINT('',(0.040368658822045,5.08786590880412,1.61701482228837));
#441=CARTESIAN_POINT('',(0.0581264880785419,5.09095019313581,1.61649752677548));
#442=CARTESIAN_POINT('',(0.0798851358622222,5.09640315709918,1.61559443456694));
#443=CARTESIAN_POINT('',(0.105239896962187,5.10545053389198,1.61413811651186));
#444=CARTESIAN_POINT('',(0.129923160456785,5.11712035642954,1.61233330620636));
#445=CARTESIAN_POINT('',(0.152976970154604,5.13095402564921,1.61030154187093));
#446=CARTESIAN_POINT('',(0.170958680408108,5.14427154994411,1.60846624497296));
#447=CARTESIAN_POINT('',(0.184573112722698,5.15599288851721,1.60694525968399));
#448=CARTESIAN_POINT('',(0.19442856504028,5.16536158142842,1.60578176129291));
#449=CARTESIAN_POINT('',(0.203766251628286,5.17516241984504,1.60462249803057));
#450=CARTESIAN_POINT('',(0.215488093336379,5.18873924556723,1.60310000021274));
#451=CARTESIAN_POINT('',(0.228821234397351,5.20668627043456,1.60125659627771));
#452=CARTESIAN_POINT('',(0.240384506725449,5.22589627199612,1.59954788805968));
#453=CARTESIAN_POINT('',(0.248573348832284,5.24210996877012,1.59828944966137));
#454=CARTESIAN_POINT('',(0.255904618846796,5.25861171734403,1.59713526292357));
#455=CARTESIAN_POINT('',(0.263475047454846,5.27971161973427,1.59590342193612));
#456=CARTESIAN_POINT('',(0.268958948146467,5.30145345958601,1.59498353341195));
#457=CARTESIAN_POINT('',(0.272073843190832,5.31922571360121,1.59445397519291));
#458=CARTESIAN_POINT('',(0.274325135661621,5.33729135451635,1.59406822491106));
#459=CARTESIAN_POINT('',(0.275,5.35089949576026,1.5939514578556));
#460=CARTESIAN_POINT('',(0.275,5.36,1.5939514578556));
#461=CARTESIAN_POINT('',(-0.275,5.36,1.5939514578556));
#462=CARTESIAN_POINT('',(-0.275,7.385,1.5939514578556));
#463=CARTESIAN_POINT('',(-0.275,5.81,1.5939514578556));
#464=CARTESIAN_POINT('',(0.275,5.81,1.5939514578556));
#465=CARTESIAN_POINT('',(0.275,5.81910049460563,1.5939514578556));
#466=CARTESIAN_POINT('',(0.274099465612975,5.83714359830382,1.59410721282327));
#467=CARTESIAN_POINT('',(0.270138681653361,5.8637637552499,1.59478535212058));
#468=CARTESIAN_POINT('',(0.264690209751752,5.88554936740981,1.59569991566904));
#469=CARTESIAN_POINT('',(0.258987881331085,5.90280185713567,1.59663357233216));
#470=CARTESIAN_POINT('',(0.252466023962349,5.91967253899988,1.59768200634364));
#471=CARTESIAN_POINT('',(0.242867004830816,5.93992496672888,1.59917987556095));
#472=CARTESIAN_POINT('',(0.231357427668217,5.95912939816303,1.60088261616551));
#473=CARTESIAN_POINT('',(0.2210030470257,5.97384163387994,1.60233770162799));
#474=CARTESIAN_POINT('',(0.209834604143638,5.98815194228097,1.60384960482778));
#475=CARTESIAN_POINT('',(0.194744348737464,6.0047804388833,1.60577169513935));
#476=CARTESIAN_POINT('',(0.174878213632408,6.02279611533939,1.60806358427876));
#477=CARTESIAN_POINT('',(0.156866568260562,6.03618932120086,1.6099069065568));
#478=CARTESIAN_POINT('',(0.141527399811129,6.0459164153993,1.61131060181738));
#479=CARTESIAN_POINT('',(0.12585909576885,6.05479698239743,1.61262997614332));
#480=CARTESIAN_POINT('',(0.105617003566614,6.06438186947892,1.61411191354943));
#481=CARTESIAN_POINT('',(0.0845212546010708,6.0719598038027,1.6153306434361));
#482=CARTESIAN_POINT('',(0.0671189661420785,6.07679947333334,1.61612487664968));
#483=CARTESIAN_POINT('',(0.0493601593217139,6.08080038139557,1.61678955922026));
#484=CARTESIAN_POINT('',(0.0271160174751603,6.08409931503473,1.61734656134603));
#485=CARTESIAN_POINT('',(0.00471664804617779,6.08521636952232,1.61753683535507));
#486=CARTESIAN_POINT('',(-0.0132751265471877,6.08479042512592,1.61746434214427));
#487=CARTESIAN_POINT('',(-0.0268200165117807,6.08380232829889,1.61729664029005));
#488=CARTESIAN_POINT('',(-0.0403686588220415,6.08213409119588,1.61701482228837));
#489=CARTESIAN_POINT('',(-0.0581264880785391,6.07904980686419,1.61649752677548));
#490=CARTESIAN_POINT('',(-0.0798851358622186,6.07359684290082,1.61559443456694));
#491=CARTESIAN_POINT('',(-0.105239896962183,6.06454946610802,1.61413811651186));
#492=CARTESIAN_POINT('',(-0.129923160456782,6.05287964357046,1.61233330620636));
#493=CARTESIAN_POINT('',(-0.1529769701546,6.03904597435079,1.61030154187093));
#494=CARTESIAN_POINT('',(-0.170958680408105,6.02572845005589,1.60846624497296));
#495=CARTESIAN_POINT('',(-0.184573112722695,6.01400711148279,1.60694525968399));
#496=CARTESIAN_POINT('',(-0.194428565040277,6.00463841857158,1.60578176129291));
#497=CARTESIAN_POINT('',(-0.203766251628283,5.99483758015496,1.60462249803057));
#498=CARTESIAN_POINT('',(-0.215488093336375,5.98126075443277,1.60310000021274));
#499=CARTESIAN_POINT('',(-0.228821234397347,5.96331372956544,1.60125659627771));
#500=CARTESIAN_POINT('',(-0.240384506725445,5.94410372800388,1.59954788805968));
#501=CARTESIAN_POINT('',(-0.248573348832281,5.92789003122988,1.59828944966136));
#502=CARTESIAN_POINT('',(-0.255904618846792,5.91138828265597,1.59713526292356));
#503=CARTESIAN_POINT('',(-0.263475047454843,5.89028838026573,1.59590342193612));
#504=CARTESIAN_POINT('',(-0.268958948146463,5.868546540414,1.59498353341195));
#505=CARTESIAN_POINT('',(-0.272073843190828,5.85077428639879,1.59445397519291));
#506=CARTESIAN_POINT('',(-0.274325135661617,5.83270864548365,1.59406822491105));
#507=CARTESIAN_POINT('',(-0.275,5.81910050423974,1.5939514578556));
#508=CARTESIAN_POINT('',(-0.275,5.81,1.5939514578556));
#509=CARTESIAN_POINT('',(1.61743763230451,2.70528800813372,-0.0173640358341615));
#510=CARTESIAN_POINT('',(1.6175311857046,2.70485598349921,2.87156466294812E-06));
#511=CARTESIAN_POINT('',(1.6174376248771,2.70528805786945,0.0173525495755132));
#512=CARTESIAN_POINT('',(1.6170698602544,2.70699088051068,0.0402394810477539));
#513=CARTESIAN_POINT('',(1.61616516344752,2.71120201133545,0.0685073185823145));
#514=CARTESIAN_POINT('',(1.61469947709563,2.71815035477992,0.0962569316511229));
#515=CARTESIAN_POINT('',(1.61320091248985,2.72542165214522,0.118230427342525));
#516=CARTESIAN_POINT('',(1.61193861388593,2.73165228667002,0.134330860771434));
#517=CARTESIAN_POINT('',(1.61055453773909,2.73861908903459,0.150002547547675));
#518=CARTESIAN_POINT('',(1.6090584835718,2.74631926642256,0.165267787821709));
#519=CARTESIAN_POINT('',(1.60746186740477,2.75474633890209,0.180125263834475));
#520=CARTESIAN_POINT('',(1.60577521684121,2.76390392097827,0.194578382702954));
#521=CARTESIAN_POINT('',(1.60401066911665,2.77379157074691,0.20861747011897));
#522=CARTESIAN_POINT('',(1.60156359216066,2.78800001726047,0.226810953737237));
#523=CARTESIAN_POINT('',(1.59844689042437,2.80717893385538,0.247934899095363));
#524=CARTESIAN_POINT('',(1.59533600560809,2.82822906101117,0.267023929753886));
#525=CARTESIAN_POINT('',(1.59290437407131,2.84619385414236,0.281065433458464));
#526=CARTESIAN_POINT('',(1.59112241949462,2.86023844615917,0.290976830968196));
#527=CARTESIAN_POINT('',(1.58939651400375,2.87486900856232,0.300253556907772));
#528=CARTESIAN_POINT('',(1.58777221494971,2.88980462688563,0.308720201013832));
#529=CARTESIAN_POINT('',(1.58625396843497,2.90508581139574,0.31642241782164));
#530=CARTESIAN_POINT('',(1.5848535504662,2.92069843021842,0.323357929251832));
#531=CARTESIAN_POINT('',(1.58358064301627,2.93664669810686,0.329530305257152));
#532=CARTESIAN_POINT('',(1.58244576934404,2.95293060159114,0.33493336329977));
#533=CARTESIAN_POINT('',(1.58145865370293,2.96956315775645,0.339560047749411));
#534=CARTESIAN_POINT('',(1.58035716544401,2.99217819263311,0.344655342257653));
#535=CARTESIAN_POINT('',(1.57943305765472,3.02050345575039,0.348856117992438));
#536=CARTESIAN_POINT('',(1.57911748243096,3.04904689027564,0.350277071743158));
#537=CARTESIAN_POINT('',(1.57923890203974,3.07197826690442,0.349729854259151));
#538=CARTESIAN_POINT('',(1.57951888462434,3.08925592526449,0.348464202701675));
#539=CARTESIAN_POINT('',(1.57998786544689,3.10650715351161,0.346333429337523));
#540=CARTESIAN_POINT('',(1.58084753241926,3.12911954535304,0.3423970373573));
#541=CARTESIAN_POINT('',(1.58234621258682,3.15683069562586,0.335440518894558));
#542=CARTESIAN_POINT('',(1.58435572271161,3.18373423587918,0.325821485615436));
#543=CARTESIAN_POINT('',(1.58624745781382,3.20485256491661,0.316455887944048));
#544=CARTESIAN_POINT('',(1.5882892713861,3.22539611023637,0.306096690675327));
#545=CARTESIAN_POINT('',(1.5905129715924,3.24494156412025,0.294360951454891));
#546=CARTESIAN_POINT('',(1.5928703819459,3.26354614284516,0.281257488436458));
#547=CARTESIAN_POINT('',(1.59469256278403,3.27702544923024,0.270743737124903));
#548=CARTESIAN_POINT('',(1.59655487390879,3.29002028467949,0.25954702469102));
#549=CARTESIAN_POINT('',(1.59845009976714,3.30255803801473,0.247617438084981));
#550=CARTESIAN_POINT('',(1.60032875463198,3.31440076096122,0.235178456788604));
#551=CARTESIAN_POINT('',(1.60279524015983,3.3292927929331,0.217922537918746));
#552=CARTESIAN_POINT('',(1.60577468007984,3.3462421792162,0.195103717145991));
#553=CARTESIAN_POINT('',(1.60853192523338,3.36096964176547,0.170632866333963));
#554=CARTESIAN_POINT('',(1.61055665616226,3.37139231046459,0.149985804776972));
#555=CARTESIAN_POINT('',(1.61194422267654,3.3783754922098,0.134262114217724));
#556=CARTESIAN_POINT('',(1.61319676697787,3.38455760503022,0.118277099474831));
#557=CARTESIAN_POINT('',(1.61430596493084,3.38994087277737,0.102039669850308));
#558=CARTESIAN_POINT('',(1.61526472927587,3.39452827974408,0.0855480321935201));
#559=CARTESIAN_POINT('',(1.61606550158728,3.39831480602905,0.0688004804934068));
#560=CARTESIAN_POINT('',(1.61670097266982,3.40129160367856,0.0517948663033725));
#561=CARTESIAN_POINT('',(1.61731608879123,3.40415236472129,0.0287612031905284));
#562=CARTESIAN_POINT('',(1.61762112182616,3.40555825941391,0.000127173289881605));
#563=CARTESIAN_POINT('',(1.61732051360238,3.40417270856004,-0.0284218421875891));
#564=CARTESIAN_POINT('',(1.61672006774634,3.4013806166452,-0.0511814605012538));
#565=CARTESIAN_POINT('',(1.61609015744556,3.39843085690978,-0.0682338477441228));
#566=CARTESIAN_POINT('',(1.61528432121937,3.39462156287755,-0.0851879532847747));
#567=CARTESIAN_POINT('',(1.61432334465775,3.39002463267808,-0.101767061451608));
#568=CARTESIAN_POINT('',(1.61321387938367,3.38464137622104,-0.118044123405301));
#569=CARTESIAN_POINT('',(1.61154898544567,3.37642574282961,-0.139328958957612));
#570=CARTESIAN_POINT('',(1.60962590474955,3.3666728154858,-0.159973510141405));
#571=CARTESIAN_POINT('',(1.60747132862315,3.35530539977503,-0.180046086699887));
#572=CARTESIAN_POINT('',(1.60520399811143,3.34299445310477,-0.199471938736101));
#573=CARTESIAN_POINT('',(1.60281649542683,3.32941616404523,-0.21776504133766));
#574=CARTESIAN_POINT('',(1.60035613019886,3.31456906779175,-0.234991618981255));
#575=CARTESIAN_POINT('',(1.59848756572542,3.3027975784033,-0.247373599614381));
#576=CARTESIAN_POINT('',(1.59661029600245,3.29039604024958,-0.25920602024521));
#577=CARTESIAN_POINT('',(1.5947310202721,3.27730388746282,-0.270518914448506));
#578=CARTESIAN_POINT('',(1.59289748338084,3.26375380186381,-0.281104444778308));
#579=CARTESIAN_POINT('',(1.59053355291751,3.24511521779587,-0.294250348352787));
#580=CARTESIAN_POINT('',(1.58775814712934,3.22073371360929,-0.308901337583038));
#581=CARTESIAN_POINT('',(1.58530471635324,3.19494078552366,-0.321169375002656));
#582=CARTESIAN_POINT('',(1.58358007652831,3.17335482401045,-0.329533492314098));
#583=CARTESIAN_POINT('',(1.58244057394863,3.15698849459066,-0.33495783082902));
#584=CARTESIAN_POINT('',(1.58146025231333,3.14045249159464,-0.339552335275481));
#585=CARTESIAN_POINT('',(1.58064500042357,3.12374686330383,-0.343324244836092));
#586=CARTESIAN_POINT('',(1.58000038129321,3.1068727666557,-0.346276283289087));
#587=CARTESIAN_POINT('',(1.57953207598882,3.08982688318097,-0.348404433858259));
#588=CARTESIAN_POINT('',(1.5792454622815,3.07261561118612,-0.34970026432208));
#589=CARTESIAN_POINT('',(1.57911444772059,3.04939976031904,-0.350290744764089));
#590=CARTESIAN_POINT('',(1.57942760188336,3.02074436739081,-0.3488808613964));
#591=CARTESIAN_POINT('',(1.58034667266068,2.99247866169945,-0.344703007609439));
#592=CARTESIAN_POINT('',(1.5814291626237,2.97011930841345,-0.339697089062781));
#593=CARTESIAN_POINT('',(1.5824110565307,2.95346136285702,-0.335097418154596));
#594=CARTESIAN_POINT('',(1.58355559465619,2.93697487166481,-0.329650899689187));
#595=CARTESIAN_POINT('',(1.58483294715566,2.92093976925751,-0.323458962911226));
#596=CARTESIAN_POINT('',(1.58623523247808,2.9052835132491,-0.316516361679115));
#597=CARTESIAN_POINT('',(1.58825537419144,2.88492719151414,-0.306270807067759));
#598=CARTESIAN_POINT('',(1.59047623163673,2.86535756139002,-0.294561488098135));
#599=CARTESIAN_POINT('',(1.59286138617744,2.84651877200048,-0.28131001634703));
#600=CARTESIAN_POINT('',(1.59531240541726,2.82839095980442,-0.267166835171772));
#601=CARTESIAN_POINT('',(1.59780509332111,2.8115179301769,-0.251877220484558));
#602=CARTESIAN_POINT('',(1.60029214160502,2.7958254440725,-0.235426562774117));
#603=CARTESIAN_POINT('',(1.60214101630236,2.78465250653373,-0.222507370080346));
#604=CARTESIAN_POINT('',(1.6039588132745,2.77408754554426,-0.209014784443651));
#605=CARTESIAN_POINT('',(1.60573881448062,2.76410354142776,-0.194881929170715));
#606=CARTESIAN_POINT('',(1.60743824801716,2.7548723658757,-0.180337471006441));
#607=CARTESIAN_POINT('',(1.60957432238136,2.74359460208936,-0.16048124017303));
#608=CARTESIAN_POINT('',(1.61198038276594,2.73138109326549,-0.134756367768522));
#609=CARTESIAN_POINT('',(1.61396575554303,2.72168748788884,-0.107870362545472));
#610=CARTESIAN_POINT('',(1.61526493841862,2.71547042196969,-0.0855585548526453));
#611=CARTESIAN_POINT('',(1.6163396827972,2.71038921413009,-0.063050059605283));
#612=CARTESIAN_POINT('',(1.61706836523512,2.7069978848221,-0.0403176494477176));
#613=CARTESIAN_POINT('',(1.61743763230451,2.70528800813372,-0.0173640358341615));
#614=CARTESIAN_POINT('',(1.6175311857046,2.70485598349921,2.87156466294812E-06));
#615=CARTESIAN_POINT('',(1.6174376248771,2.70528805786945,0.0173525495755132));
#616=CARTESIAN_POINT('',(1.6175,2.705,5.64035231725012E-16));
#617=MECHANICAL_DESIGN_GEOMETRIC_PRESENTATION_REPRESENTATION('',(#114,#107),#620);
#618=MECHANICAL_DESIGN_GEOMETRIC_PRESENTATION_REPRESENTATION('',(#115),#621);
#619=MECHANICAL_DESIGN_GEOMETRIC_PRESENTATION_REPRESENTATION('',(#116),#622);
#620=(
GEOMETRIC_REPRESENTATION_CONTEXT(3)
GLOBAL_UNCERTAINTY_ASSIGNED_CONTEXT((#623))
GLOBAL_UNIT_ASSIGNED_CONTEXT((#632,#629,#626))
REPRESENTATION_CONTEXT('skir_carbo_und','TOP_LEVEL_ASSEMBLY_PART')
);
#621=(
GEOMETRIC_REPRESENTATION_CONTEXT(3)
GLOBAL_UNCERTAINTY_ASSIGNED_CONTEXT((#624))
GLOBAL_UNIT_ASSIGNED_CONTEXT((#633,#630,#627))
REPRESENTATION_CONTEXT('skir_sless','TOP_LEVEL_ASSEMBLY_PART')
);
#622=(
GEOMETRIC_REPRESENTATION_CONTEXT(3)
GLOBAL_UNCERTAINTY_ASSIGNED_CONTEXT((#625))
GLOBAL_UNIT_ASSIGNED_CONTEXT((#634,#631,#628))
REPRESENTATION_CONTEXT('skir_carbo_mid','TOP_LEVEL_ASSEMBLY_PART')
);
#623=UNCERTAINTY_MEASURE_WITH_UNIT(LENGTH_MEASURE(1.E-08),#632,'DISTANCE_ACCURACY_VALUE','Maximum Tolerance applied to model');
#624=UNCERTAINTY_MEASURE_WITH_UNIT(LENGTH_MEASURE(1.E-08),#633,'DISTANCE_ACCURACY_VALUE','Maximum Tolerance applied to model');
#625=UNCERTAINTY_MEASURE_WITH_UNIT(LENGTH_MEASURE(2.E-05),#634,'DISTANCE_ACCURACY_VALUE','Maximum Tolerance applied to model');
#626=(
NAMED_UNIT(*)
SI_UNIT($,.STERADIAN.)
SOLID_ANGLE_UNIT()
);
#627=(
NAMED_UNIT(*)
SI_UNIT($,.STERADIAN.)
SOLID_ANGLE_UNIT()
);
#628=(
NAMED_UNIT(*)
SI_UNIT($,.STERADIAN.)
SOLID_ANGLE_UNIT()
);
#629=(
NAMED_UNIT(*)
PLANE_ANGLE_UNIT()
SI_UNIT($,.RADIAN.)
);
#630=(
NAMED_UNIT(*)
PLANE_ANGLE_UNIT()
SI_UNIT($,.RADIAN.)
);
#631=(
NAMED_UNIT(*)
PLANE_ANGLE_UNIT()
SI_UNIT($,.RADIAN.)
);
#632=(
LENGTH_UNIT()
NAMED_UNIT(*)
SI_UNIT($,.METRE.)
);
#633=(
LENGTH_UNIT()
NAMED_UNIT(*)
SI_UNIT($,.METRE.)
);
#634=(
LENGTH_UNIT()
NAMED_UNIT(*)
SI_UNIT($,.METRE.)
);
#635=PRODUCT_DEFINITION_SHAPE('','',#638);
#636=PRODUCT_DEFINITION_SHAPE('','',#639);
#637=PRODUCT_DEFINITION_SHAPE('','',#640);
#638=PRODUCT_DEFINITION('','',#644,#641);
#639=PRODUCT_DEFINITION('','',#645,#642);
#640=PRODUCT_DEFINITION('','',#646,#643);
#641=PRODUCT_DEFINITION_CONTEXT('',#662,'design');
#642=PRODUCT_DEFINITION_CONTEXT('',#663,'design');
#643=PRODUCT_DEFINITION_CONTEXT('',#664,'design');
#644=PRODUCT_DEFINITION_FORMATION_WITH_SPECIFIED_SOURCE('','',#650,.NOT_KNOWN.);
#645=PRODUCT_DEFINITION_FORMATION_WITH_SPECIFIED_SOURCE('','',#651,.NOT_KNOWN.);
#646=PRODUCT_DEFINITION_FORMATION_WITH_SPECIFIED_SOURCE('','',#652,.NOT_KNOWN.);
#647=PRODUCT_RELATED_PRODUCT_CATEGORY('','',(#650));
#648=PRODUCT_RELATED_PRODUCT_CATEGORY('','',(#651));
#649=PRODUCT_RELATED_PRODUCT_CATEGORY('','',(#652));
#650=PRODUCT('skir_carbo_und','skir_carbo_und','skir_carbo_und',(#656));
#651=PRODUCT('skir_sless','skir_sless','skir_sless',(#657));
#652=PRODUCT('skir_carbo_mid','skir_carbo_mid','skir_carbo_mid',(#658));
#653=PRODUCT_CATEGORY('','');
#654=PRODUCT_CATEGORY('','');
#655=PRODUCT_CATEGORY('','');
#656=PRODUCT_CONTEXT('',#662,'mechanical');
#657=PRODUCT_CONTEXT('',#663,'mechanical');
#658=PRODUCT_CONTEXT('',#664,'mechanical');
#659=APPLICATION_PROTOCOL_DEFINITION('international standard','ap242_managed_model_based_3d_engineering',2020,#662);
#660=APPLICATION_PROTOCOL_DEFINITION('international standard','ap242_managed_model_based_3d_engineering',2020,#663);
#661=APPLICATION_PROTOCOL_DEFINITION('international standard','ap242_managed_model_based_3d_engineering',2020,#664);
#662=APPLICATION_CONTEXT('managed model based 3d engineering');
#663=APPLICATION_CONTEXT('managed model based 3d engineering');
#664=APPLICATION_CONTEXT('managed model based 3d engineering');
ENDSEC;
END-ISO-10303-21;
