ISO-10303-21;
HEADER;
/* Generated by software containing ST-Developer
 * from STEP Tools, Inc. (www.steptools.com) 
 */
/* OPTION: using custom renumber hook */

FILE_DESCRIPTION(
/* description */ ('STEP AP242 Edition 2',
'CAx-IF Rec.Pracs.---Representation and Presentation of Product Manufa
cturing Information (PMI)---4.0---2014-10-13',
'CAx-IF Rec.Pracs.---3D Tessellated Geometry---0.4---2014-09-14','2;1',
'CAx-IF Rec.Pracs.---User Defined Attributes---1.5---2016-08-15'),
/* implementation_level */ '2;1');

FILE_NAME(
/* name */ 'skirt_wcutouts',
/* time_stamp */ '2026-09-25T17:24:17Z',
/* author */ (''),
/* organization */ (''),
/* preprocessor_version */ 'ST-DEVELOPER v20',
/* originating_system */ 'ONSHAPE BY PTC INC, 1.221',
/* authorisation */ '  ');

FILE_SCHEMA (('AP242_MANAGED_MODEL_BASED_3D_ENGINEERING_MIM_LF { 1 0 10303 442 3 1 4 }'));
ENDSEC;

DATA;
#10=SHAPE_REPRESENTATION_RELATIONSHIP('','',#89,#11);
#11=MANIFOLD_SURFACE_SHAPE_REPRESENTATION('',(#87),#273);
#12=CIRCLE('',#92,1.6125);
#13=CIRCLE('',#93,1.6125);
#14=LINE('',#144,#18);
#15=LINE('',#167,#19);
#16=LINE('',#249,#20);
#17=LINE('',#271,#21);
#18=VECTOR('',#98,1.);
#19=VECTOR('',#99,1.);
#20=VECTOR('',#104,1.);
#21=VECTOR('',#105,1.);
#22=ORIENTED_EDGE('',*,*,#34,.F.);
#23=ORIENTED_EDGE('',*,*,#35,.F.);
#24=ORIENTED_EDGE('',*,*,#36,.F.);
#25=ORIENTED_EDGE('',*,*,#37,.T.);
#26=ORIENTED_EDGE('',*,*,#38,.F.);
#27=ORIENTED_EDGE('',*,*,#39,.F.);
#28=ORIENTED_EDGE('',*,*,#40,.T.);
#29=ORIENTED_EDGE('',*,*,#41,.F.);
#30=ORIENTED_EDGE('',*,*,#42,.F.);
#31=ORIENTED_EDGE('',*,*,#43,.T.);
#32=ORIENTED_EDGE('',*,*,#44,.F.);
#33=ORIENTED_EDGE('',*,*,#45,.F.);
#34=EDGE_CURVE('',#46,#46,#58,.T.);
#35=EDGE_CURVE('',#47,#48,#14,.T.);
#36=EDGE_CURVE('',#49,#47,#59,.T.);
#37=EDGE_CURVE('',#49,#50,#15,.T.);
#38=EDGE_CURVE('',#48,#50,#60,.T.);
#39=EDGE_CURVE('',#51,#51,#61,.T.);
#40=EDGE_CURVE('',#52,#52,#12,.T.);
#41=EDGE_CURVE('',#53,#53,#13,.T.);
#42=EDGE_CURVE('',#54,#55,#62,.T.);
#43=EDGE_CURVE('',#54,#56,#16,.T.);
#44=EDGE_CURVE('',#57,#56,#63,.T.);
#45=EDGE_CURVE('',#55,#57,#17,.T.);
#46=VERTEX_POINT('',#143);
#47=VERTEX_POINT('',#145);
#48=VERTEX_POINT('',#146);
#49=VERTEX_POINT('',#166);
#50=VERTEX_POINT('',#168);
#51=VERTEX_POINT('',#223);
#52=VERTEX_POINT('',#225);
#53=VERTEX_POINT('',#227);
#54=VERTEX_POINT('',#247);
#55=VERTEX_POINT('',#248);
#56=VERTEX_POINT('',#250);
#57=VERTEX_POINT('',#270);
#58=B_SPLINE_CURVE_WITH_KNOTS('',3,(#108,#109,#110,#111,#112,#113,#114,
#115,#116,#117,#118,#119,#120,#121,#122,#123,#124,#125,#126,#127,#128,#129,
#130,#131,#132,#133,#134,#135,#136,#137,#138,#139,#140,#141,#142),
 .UNSPECIFIED.,.T.,.F.,(1,1,1,1,1,1,1,1,1,1,1,1,1,1,1,1,1,1,1,1,1,1,1,1,
1,1,1,1,1,1,1,1,1,1,1,1,1,1,1),(-0.589048622548086,-0.392699081698724,-0.196349540849362,
0.,0.196349540849362,0.392699081698724,0.589048622548087,0.785398163397449,
0.981747704246811,1.17809724509617,1.37444678594554,1.5707963267949,1.76714586764426,
1.96349540849362,2.15984494934298,2.35619449019235,2.55254403104171,2.74889357189107,
2.94524311274043,3.1415926535898,3.33794219443916,3.53429173528852,3.73064127613788,
3.92699081698724,4.12334035783661,4.31968989868597,4.51603943953533,4.71238898038469,
4.90873852123406,5.10508806208342,5.30143760293278,5.49778714378214,5.6941366846315,
5.89048622548087,6.08683576633023,6.28318530717959,6.47953484802895,6.67588438887832,
6.87223392972768),.UNSPECIFIED.);
#59=B_SPLINE_CURVE_WITH_KNOTS('',3,(#147,#148,#149,#150,#151,#152,#153,
#154,#155,#156,#157,#158,#159,#160,#161,#162,#163,#164,#165),
 .UNSPECIFIED.,.F.,.F.,(4,1,1,1,1,1,1,1,1,1,1,1,1,1,1,1,4),(0.,0.196349540849362,
0.392699081698724,0.589048622548087,0.785398163397449,0.981747704246811,
1.17809724509617,1.37444678594554,1.5707963267949,1.76714586764426,1.96349540849362,
2.15984494934298,2.35619449019235,2.55254403104171,2.74889357189107,2.94524311274043,
3.1415926535898),.UNSPECIFIED.);
#60=B_SPLINE_CURVE_WITH_KNOTS('',3,(#169,#170,#171,#172,#173,#174,#175,
#176,#177,#178,#179,#180,#181,#182,#183,#184,#185,#186,#187),
 .UNSPECIFIED.,.F.,.F.,(4,1,1,1,1,1,1,1,1,1,1,1,1,1,1,1,4),(0.,0.196349540849363,
0.392699081698725,0.589048622548088,0.78539816339745,0.981747704246813,
1.17809724509618,1.37444678594554,1.5707963267949,1.76714586764426,1.96349540849363,
2.15984494934299,2.35619449019235,2.55254403104171,2.74889357189108,2.94524311274044,
3.1415926535898),.UNSPECIFIED.);
#61=B_SPLINE_CURVE_WITH_KNOTS('',3,(#188,#189,#190,#191,#192,#193,#194,
#195,#196,#197,#198,#199,#200,#201,#202,#203,#204,#205,#206,#207,#208,#209,
#210,#211,#212,#213,#214,#215,#216,#217,#218,#219,#220,#221,#222),
 .UNSPECIFIED.,.T.,.F.,(1,1,1,1,1,1,1,1,1,1,1,1,1,1,1,1,1,1,1,1,1,1,1,1,
1,1,1,1,1,1,1,1,1,1,1,1,1,1,1),(-0.589048622548086,-0.392699081698724,-0.196349540849362,
0.,0.196349540849362,0.392699081698724,0.589048622548087,0.785398163397449,
0.981747704246811,1.17809724509617,1.37444678594554,1.5707963267949,1.76714586764426,
1.96349540849362,2.15984494934298,2.35619449019235,2.55254403104171,2.74889357189107,
2.94524311274043,3.1415926535898,3.33794219443916,3.53429173528852,3.73064127613788,
3.92699081698724,4.12334035783661,4.31968989868597,4.51603943953533,4.71238898038469,
4.90873852123406,5.10508806208342,5.30143760293278,5.49778714378214,5.6941366846315,
5.89048622548087,6.08683576633023,6.28318530717959,6.47953484802895,6.67588438887832,
6.87223392972768),.UNSPECIFIED.);
#62=B_SPLINE_CURVE_WITH_KNOTS('',3,(#228,#229,#230,#231,#232,#233,#234,
#235,#236,#237,#238,#239,#240,#241,#242,#243,#244,#245,#246),
 .UNSPECIFIED.,.F.,.F.,(4,1,1,1,1,1,1,1,1,1,1,1,1,1,1,1,4),(0.,0.196349540849362,
0.392699081698724,0.589048622548087,0.785398163397449,0.981747704246811,
1.17809724509617,1.37444678594554,1.5707963267949,1.76714586764426,1.96349540849362,
2.15984494934298,2.35619449019235,2.55254403104171,2.74889357189107,2.94524311274043,
3.1415926535898),.UNSPECIFIED.);
#63=B_SPLINE_CURVE_WITH_KNOTS('',3,(#251,#252,#253,#254,#255,#256,#257,
#258,#259,#260,#261,#262,#263,#264,#265,#266,#267,#268,#269),
 .UNSPECIFIED.,.F.,.F.,(4,1,1,1,1,1,1,1,1,1,1,1,1,1,1,1,4),(0.,0.196349540849362,
0.392699081698724,0.589048622548086,0.785398163397448,0.981747704246809,
1.17809724509617,1.37444678594553,1.5707963267949,1.76714586764426,1.96349540849362,
2.15984494934298,2.35619449019234,2.5525440310417,2.74889357189107,2.94524311274043,
3.14159265358979),.UNSPECIFIED.);
#64=EDGE_LOOP('',(#22));
#65=EDGE_LOOP('',(#23,#24,#25,#26));
#66=EDGE_LOOP('',(#27));
#67=EDGE_LOOP('',(#28));
#68=EDGE_LOOP('',(#29));
#69=EDGE_LOOP('',(#30,#31,#32,#33));
#70=FACE_BOUND('',#64,.T.);
#71=FACE_BOUND('',#65,.T.);
#72=FACE_BOUND('',#66,.T.);
#73=FACE_BOUND('',#67,.T.);
#74=FACE_BOUND('',#68,.T.);
#75=FACE_BOUND('',#69,.T.);
#76=CYLINDRICAL_SURFACE('',#91,1.6125);
#77=ADVANCED_FACE('',(#70,#71,#72,#73,#74,#75),#76,.T.);
#78=OPEN_SHELL('',(#77));
#79=STYLED_ITEM('',(#80),#87);
#80=PRESENTATION_STYLE_ASSIGNMENT((#81));
#81=SURFACE_STYLE_USAGE(.BOTH.,#82);
#82=SURFACE_SIDE_STYLE('',(#83));
#83=SURFACE_STYLE_FILL_AREA(#84);
#84=FILL_AREA_STYLE('',(#85));
#85=FILL_AREA_STYLE_COLOUR('',#86);
#86=COLOUR_RGB('',0.615686274509804,0.811764705882353,0.929411764705882);
#87=SHELL_BASED_SURFACE_MODEL('Surface 1',(#78));
#88=SHAPE_DEFINITION_REPRESENTATION(#278,#89);
#89=SHAPE_REPRESENTATION('Surface 1',(#90),#273);
#90=AXIS2_PLACEMENT_3D('',#106,#94,#95);
#91=AXIS2_PLACEMENT_3D('',#107,#96,#97);
#92=AXIS2_PLACEMENT_3D('',#224,#100,#101);
#93=AXIS2_PLACEMENT_3D('',#226,#102,#103);
#94=DIRECTION('',(0.,0.,1.));
#95=DIRECTION('',(1.,0.,0.));
#96=DIRECTION('',(0.,1.,0.));
#97=DIRECTION('',(1.,0.,0.));
#98=DIRECTION('',(0.,1.,0.));
#99=DIRECTION('',(0.,1.,0.));
#100=DIRECTION('',(0.,1.,0.));
#101=DIRECTION('',(1.,0.,0.));
#102=DIRECTION('',(0.,1.,0.));
#103=DIRECTION('',(1.,0.,0.));
#104=DIRECTION('',(0.,1.,0.));
#105=DIRECTION('',(0.,1.,0.));
#106=CARTESIAN_POINT('',(0.,0.,0.));
#107=CARTESIAN_POINT('',(0.,0.,0.));
#108=CARTESIAN_POINT('',(-0.336896253690273,4.26877018147501,-1.57692797651646));
#109=CARTESIAN_POINT('',(-0.343090395495141,4.33700020747175,-1.5755749077422));
#110=CARTESIAN_POINT('',(-0.336896413881083,4.40522886561185,-1.57692794258054));
#111=CARTESIAN_POINT('',(-0.318367507753713,4.47109663849241,-1.58082284047735));
#112=CARTESIAN_POINT('',(-0.287758068746701,4.53214933235774,-1.58675852465611));
#113=CARTESIAN_POINT('',(-0.24575889371826,4.58588432132781,-1.59390002663558));
#114=CARTESIAN_POINT('',(-0.193726441714045,4.62997410364887,-1.601155676819));
#115=CARTESIAN_POINT('',(-0.133708735362293,4.66258146444929,-1.60736332947442));
#116=CARTESIAN_POINT('',(-0.0682282990425366,4.68252987999048,-1.61152516750749));
#117=CARTESIAN_POINT('',(-1.07634995802426E-6,4.68923502020967,-1.61298740364561));
#118=CARTESIAN_POINT('',(0.0682276983635866,4.68253011741343,-1.6115252179088));
#119=CARTESIAN_POINT('',(0.133708988468781,4.66258137136051,-1.60736330884652));
#120=CARTESIAN_POINT('',(0.193726435845968,4.6299740971971,-1.60115567538899));
#121=CARTESIAN_POINT('',(0.245758953137112,4.58588425273487,-1.59390001824699));
#122=CARTESIAN_POINT('',(0.287758082847624,4.53214936212864,-1.586758521983));
#123=CARTESIAN_POINT('',(0.318367571965618,4.47109629768374,-1.58082282712869));
#124=CARTESIAN_POINT('',(0.336896255100142,4.4052298237616,-1.57692797620618));
#125=CARTESIAN_POINT('',(0.343090386502252,4.33699975914986,-1.57557490969062));
#126=CARTESIAN_POINT('',(0.336896415294855,4.26877113963896,-1.5769279422698));
#127=CARTESIAN_POINT('',(0.318367507392211,4.2029033601647,-1.58082284055718));
#128=CARTESIAN_POINT('',(0.287758068838241,4.14185066798244,-1.58675852463569));
#129=CARTESIAN_POINT('',(0.245758893693241,4.08811567857925,-1.59390002664113));
#130=CARTESIAN_POINT('',(0.193726441720705,4.04402589637589,-1.60115567681752));
#131=CARTESIAN_POINT('',(0.133708735360505,4.01141853554404,-1.60736332947481));
#132=CARTESIAN_POINT('',(0.0682282990430422,3.9914701200114,-1.61152516750739));
#133=CARTESIAN_POINT('',(1.07634972941051E-6,3.98476497978948,-1.61298740364562));
#134=CARTESIAN_POINT('',(-0.0682276983631679,3.99146988258811,-1.61152521790888));
#135=CARTESIAN_POINT('',(-0.133708988470207,4.01141862863417,-1.6073633088462));
#136=CARTESIAN_POINT('',(-0.193726435840643,4.04402590282272,-1.60115567539019));
#137=CARTESIAN_POINT('',(-0.24575895315666,4.08811574719241,-1.59390001824256));
#138=CARTESIAN_POINT('',(-0.287758082770604,4.14185063815761,-1.58675852200016));
#139=CARTESIAN_POINT('',(-0.318367572204361,4.20290370142747,-1.58082282707343));
#140=CARTESIAN_POINT('',(-0.336896253690273,4.26877018147501,-1.57692797651646));
#141=CARTESIAN_POINT('',(-0.343090395495141,4.33700020747175,-1.5755749077422));
#142=CARTESIAN_POINT('',(-0.336896413881083,4.40522886561185,-1.57692794258054));
#143=CARTESIAN_POINT('',(-0.341025708258655,4.33699997949565,-1.57602592501097));
#144=CARTESIAN_POINT('',(1.58968849297329,6.81636800384522,-0.270271613952182));
#145=CARTESIAN_POINT('',(1.58968849297329,6.642,-0.270271613952182));
#146=CARTESIAN_POINT('',(1.58968849297329,7.092,-0.270271613952182));
#147=CARTESIAN_POINT('',(1.58968849297329,6.642,0.27027161395219));
#148=CARTESIAN_POINT('',(1.58968849297329,6.62409288213612,0.27027161395219));
#149=CARTESIAN_POINT('',(1.59026293880398,6.58827726115886,0.266924841287923));
#150=CARTESIAN_POINT('',(1.59273407434061,6.53648214578399,0.251960165140698));
#151=CARTESIAN_POINT('',(1.59647594095794,6.48856442042481,0.227389686064737));
#152=CARTESIAN_POINT('',(1.60094632296305,6.44644437334671,0.193911760064391));
#153=CARTESIAN_POINT('',(1.60546287089469,6.41187120495815,0.152683587380129));
#154=CARTESIAN_POINT('',(1.60931525154421,6.38624790436163,0.105311601657137));
#155=CARTESIAN_POINT('',(1.61189559642529,6.37052904306539,0.0537226344217809));
#156=CARTESIAN_POINT('',(1.61280218930521,6.36523555584145,1.33410244646797E-6));
#157=CARTESIAN_POINT('',(1.61189564635169,6.37052873356643,-0.0537214690985462));
#158=CARTESIAN_POINT('',(1.60931534305588,6.38624733181963,-0.105310136678192));
#159=CARTESIAN_POINT('',(1.60546299147321,6.41187035246591,-0.152682359271345));
#160=CARTESIAN_POINT('',(1.60094644563069,6.44644334322567,-0.193910764904581));
#161=CARTESIAN_POINT('',(1.59647602118331,6.48856346429684,-0.227389147635333));
#162=CARTESIAN_POINT('',(1.59273408600847,6.53648195909623,-0.251960096600746));
#163=CARTESIAN_POINT('',(1.59026295406413,6.58827662452788,-0.266924749382999));
#164=CARTESIAN_POINT('',(1.58968849297329,6.62409288213612,-0.270271613952185));
#165=CARTESIAN_POINT('',(1.58968849297329,6.642,-0.270271613952185));
#166=CARTESIAN_POINT('',(1.58968849297329,6.642,0.270271613952182));
#167=CARTESIAN_POINT('',(1.58968849297329,6.83937635040283,0.270271613952182));
#168=CARTESIAN_POINT('',(1.58968849297329,7.092,0.270271613952182));
#169=CARTESIAN_POINT('',(1.58968849297329,7.092,-0.270271613952182));
#170=CARTESIAN_POINT('',(1.58968849297329,7.10990711786388,-0.270271613952182));
#171=CARTESIAN_POINT('',(1.59026293880398,7.14572273884114,-0.266924841287926));
#172=CARTESIAN_POINT('',(1.5927340743406,7.19751785421602,-0.251960165140706));
#173=CARTESIAN_POINT('',(1.59647594095794,7.24543557957519,-0.227389686064731));
#174=CARTESIAN_POINT('',(1.60094632296304,7.28755562665329,-0.1939117600644));
#175=CARTESIAN_POINT('',(1.60546287089469,7.32212879504187,-0.15268358738012));
#176=CARTESIAN_POINT('',(1.60931525154421,7.34775209563837,-0.105311601657134));
#177=CARTESIAN_POINT('',(1.61189559642529,7.36347095693463,-0.0537226344217885));
#178=CARTESIAN_POINT('',(1.61280218930521,7.36876444415854,-1.33410244342528E-6));
#179=CARTESIAN_POINT('',(1.61189564635169,7.36347126643359,0.0537214690985389));
#180=CARTESIAN_POINT('',(1.60931534305588,7.34775266818036,0.105310136678197));
#181=CARTESIAN_POINT('',(1.60546299147321,7.32212964753411,0.152682359271343));
#182=CARTESIAN_POINT('',(1.60094644563069,7.28755665677432,0.193910764904595));
#183=CARTESIAN_POINT('',(1.59647602118331,7.24543653570317,0.227389147635323));
#184=CARTESIAN_POINT('',(1.59273408600847,7.19751804090377,0.25196009660074));
#185=CARTESIAN_POINT('',(1.59026295406413,7.14572337547212,0.266924749383007));
#186=CARTESIAN_POINT('',(1.58968849297329,7.10990711786389,0.270271613952183));
#187=CARTESIAN_POINT('',(1.58968849297329,7.092,0.270271613952183));
#188=CARTESIAN_POINT('',(0.318411330137015,0.933129522214722,1.58076269739415));
#189=CARTESIAN_POINT('',(0.32430405475038,0.997500197798063,1.57954901157846));
#190=CARTESIAN_POINT('',(0.318411485491757,1.06186957071968,1.58076266636133));
#191=CARTESIAN_POINT('',(0.30080204074643,1.12398819943376,1.58425257755607));
#192=CARTESIAN_POINT('',(0.271762588065293,1.1815342666446,1.58956130562267));
#193=CARTESIAN_POINT('',(0.231997838900786,1.23216404702851,1.5959355213214));
#194=CARTESIAN_POINT('',(0.182818915486919,1.27371042223042,1.60240114135079));
#195=CARTESIAN_POINT('',(0.126156244666627,1.30445547459999,1.60792795709744));
#196=CARTESIAN_POINT('',(0.0643690541526491,1.32327953843508,1.61163232498705));
#197=CARTESIAN_POINT('',(1.01013920678368E-6,1.32961019496366,1.61293382636509));
#198=CARTESIAN_POINT('',(-0.0643684917006861,1.32327976143056,1.61163236955148));
#199=CARTESIAN_POINT('',(-0.126156481018427,1.30445538732931,1.60792793891053));
#200=CARTESIAN_POINT('',(-0.182818909567767,1.27371041676062,1.60240114014685));
#201=CARTESIAN_POINT('',(-0.231997894260635,1.23216398296235,1.59593551394945));
#202=CARTESIAN_POINT('',(-0.271762600654967,1.18153429626498,1.58956130337912));
#203=CARTESIAN_POINT('',(-0.300802101956697,1.12398787632802,1.58425256555377));
#204=CARTESIAN_POINT('',(-0.318411331980337,1.06187048270541,1.58076269701161));
#205=CARTESIAN_POINT('',(-0.324304042966091,0.997499770767701,1.57954901398578));
#206=CARTESIAN_POINT('',(-0.318411487343948,0.933130434223792,1.58076266597748));
#207=CARTESIAN_POINT('',(-0.300802040275139,0.871011799308137,1.58425257765424));
#208=CARTESIAN_POINT('',(-0.27176258818479,0.813465733674495,1.58956130559752));
#209=CARTESIAN_POINT('',(-0.231997838868125,0.762835952884301,1.59593552132823));
#210=CARTESIAN_POINT('',(-0.182818915495603,0.721289577792807,1.60240114134897));
#211=CARTESIAN_POINT('',(-0.126156244664298,0.690544525393749,1.60792795709792));
#212=CARTESIAN_POINT('',(-0.0643690541533014,0.671720461566682,1.61163232498692));
#213=CARTESIAN_POINT('',(-1.01013890411955E-6,0.665389805035538,1.6129338263651));
#214=CARTESIAN_POINT('',(0.06436849170015,0.671720238570894,1.61163236955158));
#215=CARTESIAN_POINT('',(0.126156481020309,0.690544612665688,1.60792793891014));
#216=CARTESIAN_POINT('',(0.182818909560775,0.721289583258046,1.60240114014833));
#217=CARTESIAN_POINT('',(0.231997894286258,0.762836016969194,1.59593551394398));
#218=CARTESIAN_POINT('',(0.271762600554079,0.813465704004477,1.58956130340032));
#219=CARTESIAN_POINT('',(0.300802102269674,0.871012122834843,1.58425256548549));
#220=CARTESIAN_POINT('',(0.318411330137015,0.933129522214722,1.58076269739415));
#221=CARTESIAN_POINT('',(0.32430405475038,0.997500197798063,1.57954901157846));
#222=CARTESIAN_POINT('',(0.318411485491757,1.06186957071968,1.58076266636133));
#223=CARTESIAN_POINT('',(0.322339839105041,0.997499980687776,1.57995356834489));
#224=CARTESIAN_POINT('',(0.,0.,0.));
#225=CARTESIAN_POINT('',(1.6125,0.,0.));
#226=CARTESIAN_POINT('',(0.,10.6675,0.));
#227=CARTESIAN_POINT('',(1.6125,10.6675,0.));
#228=CARTESIAN_POINT('',(1.58968849297329,1.242,0.27027161395219));
#229=CARTESIAN_POINT('',(1.58968849297329,1.22409288213612,0.27027161395219));
#230=CARTESIAN_POINT('',(1.59026293880397,1.18827726115886,0.266924841287932));
#231=CARTESIAN_POINT('',(1.59273407434061,1.13648214578398,0.251960165140703));
#232=CARTESIAN_POINT('',(1.59647594095794,1.08856442042481,0.227389686064726));
#233=CARTESIAN_POINT('',(1.60094632296304,1.04644437334671,0.193911760064403));
#234=CARTESIAN_POINT('',(1.60546287089469,1.01187120495815,0.152683587380124));
#235=CARTESIAN_POINT('',(1.60931525154421,0.986247904361621,0.105311601657135));
#236=CARTESIAN_POINT('',(1.61189559642529,0.970529043065381,0.0537226344217923));
#237=CARTESIAN_POINT('',(1.61280218930521,0.965235555841453,1.33410243669007E-6));
#238=CARTESIAN_POINT('',(1.61189564635169,0.970528733566417,-0.0537214690985443));
#239=CARTESIAN_POINT('',(1.60931534305588,0.986247331819642,-0.10531013667819));
#240=CARTESIAN_POINT('',(1.60546299147321,1.01187035246589,-0.152682359271348));
#241=CARTESIAN_POINT('',(1.60094644563069,1.04644334322568,-0.193910764904565));
#242=CARTESIAN_POINT('',(1.5964760211833,1.08856346429683,-0.227389147635343));
#243=CARTESIAN_POINT('',(1.59273408600847,1.13648195909624,-0.251960096600738));
#244=CARTESIAN_POINT('',(1.59026295406413,1.18827662452788,-0.266924749382994));
#245=CARTESIAN_POINT('',(1.58968849297329,1.22409288213612,-0.270271613952185));
#246=CARTESIAN_POINT('',(1.58968849297329,1.242,-0.270271613952185));
#247=CARTESIAN_POINT('',(1.58968849297329,1.242,0.270271613952183));
#248=CARTESIAN_POINT('',(1.58968849297329,1.242,-0.270271613952182));
#249=CARTESIAN_POINT('',(1.58968849297329,1.4542953453064,0.270271613952182));
#250=CARTESIAN_POINT('',(1.58968849297329,1.692,0.270271613952182));
#251=CARTESIAN_POINT('',(1.58968849297329,1.692,-0.270271613952182));
#252=CARTESIAN_POINT('',(1.58968849297329,1.70990711786388,-0.270271613952182));
#253=CARTESIAN_POINT('',(1.59026293880398,1.74572273884113,-0.266924841287926));
#254=CARTESIAN_POINT('',(1.5927340743406,1.79751785421602,-0.251960165140706));
#255=CARTESIAN_POINT('',(1.59647594095794,1.84543557957519,-0.227389686064731));
#256=CARTESIAN_POINT('',(1.60094632296304,1.88755562665329,-0.1939117600644));
#257=CARTESIAN_POINT('',(1.60546287089469,1.92212879504186,-0.152683587380121));
#258=CARTESIAN_POINT('',(1.60931525154421,1.94775209563838,-0.105311601657135));
#259=CARTESIAN_POINT('',(1.61189559642529,1.96347095693462,-0.0537226344217897));
#260=CARTESIAN_POINT('',(1.61280218930521,1.96876444415855,-1.33410244386592E-6));
#261=CARTESIAN_POINT('',(1.61189564635169,1.96347126643358,0.0537214690985365));
#262=CARTESIAN_POINT('',(1.60931534305588,1.94775266818036,0.105310136678197));
#263=CARTESIAN_POINT('',(1.60546299147321,1.92212964753411,0.152682359271342));
#264=CARTESIAN_POINT('',(1.60094644563069,1.88755665677431,0.193910764904595));
#265=CARTESIAN_POINT('',(1.59647602118331,1.84543653570317,0.227389147635322));
#266=CARTESIAN_POINT('',(1.59273408600847,1.79751804090376,0.251960096600739));
#267=CARTESIAN_POINT('',(1.59026295406413,1.74572337547212,0.266924749383007));
#268=CARTESIAN_POINT('',(1.58968849297329,1.70990711786388,0.270271613952183));
#269=CARTESIAN_POINT('',(1.58968849297329,1.692,0.270271613952183));
#270=CARTESIAN_POINT('',(1.58968849297329,1.692,-0.270271613952182));
#271=CARTESIAN_POINT('',(1.58968849297329,1.4652964553833,-0.270271613952182));
#272=MECHANICAL_DESIGN_GEOMETRIC_PRESENTATION_REPRESENTATION('',(#79),#273);
#273=(
GEOMETRIC_REPRESENTATION_CONTEXT(3)
GLOBAL_UNCERTAINTY_ASSIGNED_CONTEXT((#274))
GLOBAL_UNIT_ASSIGNED_CONTEXT((#277,#276,#275))
REPRESENTATION_CONTEXT('Surface 1','TOP_LEVEL_ASSEMBLY_PART')
);
#274=UNCERTAINTY_MEASURE_WITH_UNIT(LENGTH_MEASURE(2.E-5),#277,
'DISTANCE_ACCURACY_VALUE','Maximum Tolerance applied to model');
#275=(
NAMED_UNIT(*)
SI_UNIT($,.STERADIAN.)
SOLID_ANGLE_UNIT()
);
#276=(
NAMED_UNIT(*)
PLANE_ANGLE_UNIT()
SI_UNIT($,.RADIAN.)
);
#277=(
LENGTH_UNIT()
NAMED_UNIT(*)
SI_UNIT($,.METRE.)
);
#278=PRODUCT_DEFINITION_SHAPE('','',#279);
#279=PRODUCT_DEFINITION('','',#281,#280);
#280=PRODUCT_DEFINITION_CONTEXT('',#287,'design');
#281=PRODUCT_DEFINITION_FORMATION_WITH_SPECIFIED_SOURCE('','',#283,
 .NOT_KNOWN.);
#282=PRODUCT_RELATED_PRODUCT_CATEGORY('','',(#283));
#283=PRODUCT('Surface 1','Surface 1','Surface 1',(#285));
#284=PRODUCT_CATEGORY('','');
#285=PRODUCT_CONTEXT('',#287,'mechanical');
#286=APPLICATION_PROTOCOL_DEFINITION('international standard',
'ap242_managed_model_based_3d_engineering',2020,#287);
#287=APPLICATION_CONTEXT('managed model based 3d engineering');
ENDSEC;
END-ISO-10303-21;
